<svg xmlns="http://www.w3.org/2000/svg" xmlns:xlink="http://www.w3.org/1999/xlink" width="1920" zoomAndPan="magnify" viewBox="0 0 1440 809.999993" height="1080" preserveAspectRatio="xMidYMid meet" version="1.0"><path fill="#d3c3c7" d="M 185.507812 166.761719 L 100.925781 166.761719 L 100.925781 45.5 L 185.507812 45.5 L 185.507812 166.761719 " fill-opacity="1" fill-rule="nonzero"/><path fill="#b79fa6" d="M 174.777344 145.816406 L 111.65625 145.816406 C 110.277344 145.816406 109.15625 146.9375 109.15625 148.320312 C 109.15625 149.699219 110.277344 150.820312 111.65625 150.820312 L 174.777344 150.820312 C 176.160156 150.820312 177.277344 149.699219 177.277344 148.320312 C 177.277344 146.9375 176.160156 145.816406 174.777344 145.816406 Z M 174.777344 128.941406 L 111.65625 128.941406 C 110.277344 128.941406 109.15625 130.0625 109.15625 131.445312 C 109.15625 132.820312 110.277344 133.941406 111.65625 133.941406 L 174.777344 133.941406 C 176.160156 133.941406 177.277344 132.820312 177.277344 131.445312 C 177.277344 130.0625 176.160156 128.941406 174.777344 128.941406 Z M 174.777344 112.0625 L 111.65625 112.0625 C 110.277344 112.0625 109.15625 113.1875 109.15625 114.5625 C 109.15625 115.945312 110.277344 117.066406 111.65625 117.066406 L 174.777344 117.066406 C 176.160156 117.066406 177.277344 115.945312 177.277344 114.5625 C 177.277344 113.1875 176.160156 112.0625 174.777344 112.0625 Z M 174.777344 95.1875 L 111.65625 95.1875 C 110.277344 95.1875 109.15625 96.308594 109.15625 97.6875 C 109.15625 99.074219 110.277344 100.191406 111.65625 100.191406 L 174.777344 100.191406 C 176.160156 100.191406 177.277344 99.074219 177.277344 97.6875 C 177.277344 96.308594 176.160156 95.1875 174.777344 95.1875 Z M 174.777344 78.316406 L 111.65625 78.316406 C 110.277344 78.316406 109.15625 79.433594 109.15625 80.808594 C 109.15625 82.195312 110.277344 83.3125 111.65625 83.3125 L 174.777344 83.3125 C 176.160156 83.3125 177.277344 82.195312 177.277344 80.808594 C 177.277344 79.433594 176.160156 78.316406 174.777344 78.316406 Z M 177.277344 63.933594 C 177.277344 65.320312 176.160156 66.4375 174.777344 66.4375 L 111.65625 66.4375 C 110.277344 66.4375 109.15625 65.320312 109.15625 63.933594 C 109.15625 62.558594 110.277344 61.433594 111.65625 61.433594 L 174.777344 61.433594 C 176.160156 61.433594 177.277344 62.558594 177.277344 63.933594 " fill-opacity="1" fill-rule="nonzero"/><path fill="#e68f3f" d="M 303.570312 182.484375 L 291.90625 173.726562 L 294.859375 148.460938 L 252.8125 120.449219 L 191.253906 212.863281 C 188 217.753906 189.324219 224.34375 194.203125 227.601562 L 260.777344 271.960938 C 265.664062 275.214844 272.257812 273.890625 275.511719 269.007812 L 308.09375 220.089844 L 303.570312 182.484375 " fill-opacity="1" fill-rule="nonzero"/><path fill="#2e3247" d="M 322.734375 183.3125 C 322.421875 183.3125 322.105469 183.253906 321.800781 183.132812 C 320.519531 182.621094 319.898438 181.160156 320.414062 179.882812 L 332.941406 148.722656 C 337.933594 136.308594 333 121.84375 321.46875 115.066406 C 308.84375 107.640625 292.730469 111.476562 284.785156 123.777344 L 264.835938 154.667969 C 264.089844 155.828125 262.542969 156.160156 261.378906 155.414062 C 260.222656 154.664062 259.886719 153.117188 260.636719 151.953125 L 280.585938 121.066406 C 289.984375 106.503906 309.054688 101.972656 324.003906 110.753906 C 337.648438 118.777344 343.488281 135.898438 337.582031 150.582031 L 325.054688 181.746094 C 324.660156 182.722656 323.722656 183.3125 322.734375 183.3125 " fill-opacity="1" fill-rule="nonzero"/><path fill="#e17130" d="M 260.238281 245.402344 C 260.238281 245.402344 232.738281 229.152344 232.738281 227.902344 C 232.738281 226.648438 232.738281 207.480469 232.738281 207.480469 L 195.988281 205.757812 L 225.59375 161.316406 L 251.074219 199.984375 L 244.40625 215.398438 L 260.238281 239.984375 L 260.238281 245.402344 " fill-opacity="1" fill-rule="nonzero"/><path fill="#b79fa6" d="M 177.285156 329.953125 C 175.410156 328.078125 160.929688 311.199219 160.929688 311.199219 L 174.15625 289.636719 L 191.300781 287.761719 L 218.21875 304.636719 L 177.285156 329.953125 " fill-opacity="1" fill-rule="nonzero"/><path fill="#d3c3c7" d="M 167.074219 336.949219 L 192.859375 350.699219 L 227.277344 343.824219 L 241.027344 316.945312 L 216.652344 292.886719 L 181.65625 301.632812 L 167.074219 336.949219 " fill-opacity="1" fill-rule="nonzero"/><path fill="#b79fa6" d="M 241.027344 316.945312 L 216.652344 292.886719 L 205.945312 295.558594 C 206.601562 309.738281 207.589844 328.511719 207.589844 328.511719 C 207.589844 328.511719 189.261719 336.824219 177.253906 342.378906 L 192.859375 350.699219 L 227.277344 343.824219 L 241.027344 316.945312 " fill-opacity="1" fill-rule="nonzero"/><path fill="#6ebde3" d="M 528.671875 331.515625 L 566.167969 303.179688 L 558.671875 228.59375 L 547.417969 230.671875 L 527.007812 264.011719 L 536.59375 277.339844 L 527.007812 286.511719 L 507.421875 293.179688 L 507.421875 299.433594 L 519.921875 309.429688 L 511.589844 325.261719 L 528.671875 331.515625 " fill-opacity="1" fill-rule="nonzero"/><path fill="#6ebde3" d="M 579.089844 282.761719 L 584.082031 298.597656 L 604.085938 305.679688 L 619.917969 290.679688 L 610.753906 268.179688 L 619.917969 251.929688 L 610.332031 242.757812 L 597.003906 223.589844 L 586.171875 231.09375 L 579.089844 282.761719 " fill-opacity="1" fill-rule="nonzero"/><path fill="#6ebde3" d="M 569.082031 322.765625 L 582.835938 317.351562 L 604.5 335.679688 L 582.003906 351.933594 L 562.417969 347.351562 L 569.082031 322.765625 " fill-opacity="1" fill-rule="nonzero"/><path fill="#6ebde3" d="M 558.867188 71.683594 L 561.300781 60.394531 L 566.488281 61.511719 C 569.019531 62.058594 571.511719 60.449219 572.058594 57.917969 C 572.601562 55.386719 570.996094 52.894531 568.464844 52.34375 L 478.242188 32.925781 C 475.710938 32.378906 473.21875 33.992188 472.671875 36.519531 C 472.128906 39.050781 473.734375 41.542969 476.269531 42.089844 L 481.464844 43.210938 L 479.035156 54.496094 C 473.636719 53.335938 468.316406 56.769531 467.148438 62.167969 L 464.320312 75.320312 C 461.875 86.679688 469.109375 97.878906 480.460938 100.324219 L 538.707031 112.863281 C 550.074219 115.308594 561.265625 108.082031 563.703125 96.71875 L 566.535156 83.570312 C 567.699219 78.167969 564.261719 72.847656 558.867188 71.683594 " fill-opacity="1" fill-rule="nonzero"/><path fill="#a5a7a6" d="M 551.417969 111.640625 C 555.363281 109.945312 558.75 107.066406 561.050781 103.34375 C 558.75 107.066406 555.363281 109.945312 551.417969 111.640625 " fill-opacity="1" fill-rule="nonzero"/><path fill="#58a6dc" d="M 543.152344 113.339844 C 541.691406 113.339844 540.199219 113.1875 538.707031 112.863281 L 525.203125 109.960938 L 534.570312 66.460938 L 558.863281 71.6875 C 564.261719 72.851562 567.695312 78.171875 566.53125 83.570312 L 563.703125 96.722656 C 563.183594 99.128906 562.273438 101.355469 561.050781 103.34375 C 558.75 107.066406 555.363281 109.945312 551.417969 111.640625 C 548.847656 112.742188 546.046875 113.339844 543.152344 113.339844 " fill-opacity="1" fill-rule="nonzero"/><path fill="#a5a7a6" d="M 567.476562 61.625 C 567.148438 61.625 566.820312 61.589844 566.484375 61.519531 L 561.292969 60.402344 L 566.484375 61.519531 C 566.820312 61.589844 567.148438 61.625 567.476562 61.625 M 569.492188 52.703125 C 569.171875 52.546875 568.824219 52.433594 568.460938 52.351562 L 559.378906 50.398438 L 568.457031 52.351562 C 568.824219 52.433594 569.171875 52.546875 569.492188 52.703125 " fill-opacity="1" fill-rule="nonzero"/><path fill="#58a6dc" d="M 567.476562 61.625 C 567.148438 61.625 566.820312 61.589844 566.484375 61.519531 L 561.292969 60.402344 L 537 55.171875 L 538.972656 46 L 559.378906 50.398438 L 568.460938 52.351562 C 568.824219 52.433594 569.171875 52.546875 569.492188 52.703125 C 571.414062 53.621094 572.519531 55.757812 572.058594 57.917969 C 571.578125 60.121094 569.636719 61.625 567.476562 61.625 " fill-opacity="1" fill-rule="nonzero"/><path fill="#58a6dc" d="M 558.863281 71.6875 L 561.292969 60.402344 L 558.863281 71.6875 M 534.570312 66.460938 L 479.03125 54.503906 L 481.457031 43.210938 L 537 55.171875 L 534.570312 66.460938 " fill-opacity="1" fill-rule="nonzero"/><path fill="#4988cf" d="M 558.863281 71.6875 L 534.570312 66.460938 L 537 55.171875 L 561.292969 60.402344 L 558.863281 71.6875 " fill-opacity="1" fill-rule="nonzero"/><path fill="#91a321" d="M 864.839844 85.265625 L 851.375 34.117188 C 850.664062 31.417969 852.277344 28.65625 854.976562 27.945312 C 857.675781 27.230469 860.4375 28.84375 861.148438 31.542969 L 865.796875 49.222656 L 865.804688 49.222656 C 870.164062 48.074219 874.625 50.679688 875.78125 55.039062 L 881.8125 77.976562 L 864.839844 85.265625 " fill-opacity="1" fill-rule="nonzero"/><path fill="#f2592b" d="M 872.097656 138.847656 L 855.0625 91.457031 C 851.300781 80.996094 857.320312 69.554688 868.070312 66.722656 C 879.304688 63.769531 890.527344 71.515625 891.738281 83.066406 L 896.917969 132.320312 L 882.542969 129.664062 L 872.097656 138.847656 " fill-opacity="1" fill-rule="nonzero"/><path fill="#a5a7a6" d="M 896.917969 132.320312 L 888.101562 130.6875 L 896.917969 132.320312 M 875.773438 55.046875 C 875.765625 55.027344 875.761719 55.007812 875.753906 54.996094 C 875.761719 55.007812 875.765625 55.027344 875.773438 55.046875 " fill-opacity="1" fill-rule="nonzero"/><path fill="#738323" d="M 878.9375 67.082031 C 877.03125 66.4375 875 66.089844 872.914062 66.089844 C 872.320312 66.089844 871.726562 66.117188 871.121094 66.171875 L 866.625 49.09375 C 867.050781 49.023438 867.476562 48.992188 867.894531 48.992188 C 871.496094 48.992188 874.773438 51.363281 875.757812 54.992188 C 875.765625 55.011719 875.773438 55.023438 875.777344 55.042969 L 878.9375 67.082031 " fill-opacity="1" fill-rule="nonzero"/><path fill="#f04127" d="M 896.917969 132.320312 L 888.101562 130.6875 L 874.996094 80.90625 L 871.125 66.207031 L 871.117188 66.175781 C 871.722656 66.117188 872.320312 66.09375 872.914062 66.09375 C 875 66.09375 877.027344 66.4375 878.9375 67.082031 L 878.953125 67.132812 C 885.679688 69.40625 890.925781 75.382812 891.738281 83.066406 L 896.917969 132.320312 " fill-opacity="1" fill-rule="nonzero"/><path fill="#bf2136" d="M 818.253906 213.585938 C 818.253906 204.136719 821.976562 195.578125 828.003906 189.238281 C 820.375 187.1875 814.75 180.25 814.75 171.972656 C 814.75 169.289062 815.359375 166.753906 816.421875 164.464844 C 812.605469 163.390625 808.601562 162.777344 804.445312 162.777344 C 780.070312 162.777344 760.3125 182.535156 760.3125 206.914062 C 760.3125 231.292969 780.070312 251.050781 804.445312 251.050781 C 814.828125 251.050781 824.34375 247.445312 831.882812 241.457031 C 823.59375 234.976562 818.253906 224.914062 818.253906 213.585938 " fill-opacity="1" fill-rule="nonzero"/><path fill="#d52842" d="M 779.25 203.472656 C 773.210938 203.472656 768.3125 198.570312 768.3125 192.527344 C 768.3125 186.488281 773.210938 181.589844 779.25 181.589844 C 785.296875 181.589844 790.195312 186.488281 790.195312 192.527344 C 790.195312 198.570312 785.296875 203.472656 779.25 203.472656 " fill-opacity="1" fill-rule="nonzero"/><path fill="#5c2e29" d="M 988.328125 272.699219 C 987.933594 272.769531 987.5 272.753906 987.070312 272.644531 C 985.40625 272.21875 984.402344 270.523438 984.828125 268.855469 L 988.859375 253.132812 C 989.28125 251.46875 990.96875 250.464844 992.640625 250.890625 C 994.300781 251.324219 995.3125 253.007812 994.886719 254.675781 L 990.855469 270.402344 C 990.542969 271.640625 989.523438 272.511719 988.328125 272.699219 " fill-opacity="1" fill-rule="nonzero"/><path fill="#deb85c" d="M 945.667969 335.222656 L 934.480469 324.585938 C 934.480469 324.585938 958.085938 322.300781 961.945312 301.613281 C 965.804688 280.921875 951.636719 271.746094 951.636719 271.746094 L 987.628906 268.257812 L 1016.90625 284.179688 C 1016.90625 284.179688 990.234375 287.148438 991.457031 315.945312 C 992.3125 340.867188 1006.558594 350.820312 1006.558594 350.820312 L 971.730469 350.28125 L 945.667969 335.222656 " fill-opacity="1" fill-rule="nonzero"/><path fill="#91a321" d="M 934.480469 324.585938 C 934.480469 324.585938 947.355469 376.867188 1006.554688 350.820312 C 987.453125 347.199219 982.125 332.476562 982.125 332.476562 C 982.125 332.476562 962.769531 346.460938 950.917969 324.949219 C 944.71875 329.457031 934.480469 324.585938 934.480469 324.585938 " fill-opacity="1" fill-rule="nonzero"/><path fill="#91a321" d="M 951.636719 271.746094 C 951.636719 271.746094 991.265625 241.335938 1016.90625 284.179688 C 1005.820312 278.613281 995.621094 286.242188 995.621094 286.242188 C 995.621094 286.242188 990.199219 274.652344 968.972656 281.394531 C 962.65625 272.632812 951.636719 271.746094 951.636719 271.746094 " fill-opacity="1" fill-rule="nonzero"/><path fill="#a5a7a6" d="M 1006.542969 350.808594 C 1006.179688 350.550781 998.441406 344.90625 994.179688 331.910156 C 998.441406 344.90625 1006.179688 350.550781 1006.542969 350.808594 M 995.4375 297.914062 C 1002.613281 285.769531 1016.90625 284.179688 1016.90625 284.179688 C 1016.402344 283.335938 1015.878906 282.519531 1015.371094 281.734375 C 1015.890625 282.519531 1016.402344 283.335938 1016.90625 284.179688 C 1016.90625 284.179688 1002.613281 285.769531 995.4375 297.914062 " fill-opacity="1" fill-rule="nonzero"/><path fill="#d6a441" d="M 1006.558594 350.820312 C 987.457031 347.195312 982.125 332.476562 982.125 332.476562 C 982.125 332.476562 981.429688 332.976562 980.230469 333.644531 L 992.609375 282.792969 C 994.8125 284.519531 995.621094 286.242188 995.621094 286.242188 C 995.621094 286.242188 1001.09375 282.144531 1008.378906 282.144531 C 1011.042969 282.144531 1013.933594 282.691406 1016.90625 284.179688 C 1016.90625 284.179688 1002.613281 285.769531 995.4375 297.914062 C 992.808594 302.363281 991.128906 308.226562 991.457031 315.945312 C 991.671875 322.175781 992.722656 327.46875 994.179688 331.910156 C 998.441406 344.90625 1006.179688 350.550781 1006.542969 350.808594 C 1006.550781 350.8125 1006.558594 350.820312 1006.558594 350.820312 " fill-opacity="1" fill-rule="nonzero"/><path fill="#738323" d="M 976.515625 358.035156 C 975.761719 358.035156 975.023438 358.019531 974.300781 357.988281 L 980.230469 333.644531 C 981.433594 332.976562 982.125 332.476562 982.125 332.476562 C 982.125 332.476562 987.453125 347.199219 1006.554688 350.820312 C 994.777344 355.996094 984.875 358.035156 976.515625 358.035156 " fill-opacity="1" fill-rule="nonzero"/><path fill="#738323" d="M 995.621094 286.242188 C 995.621094 286.242188 994.8125 284.519531 992.609375 282.792969 L 997.015625 264.726562 C 1003.375 267.753906 1009.675781 273.039062 1015.371094 281.734375 C 1015.878906 282.519531 1016.402344 283.335938 1016.90625 284.179688 C 1013.933594 282.691406 1011.042969 282.144531 1008.378906 282.144531 C 1001.09375 282.144531 995.621094 286.242188 995.621094 286.242188 " fill-opacity="1" fill-rule="nonzero"/><path fill="#91a321" d="M 856.511719 193.648438 C 856.511719 193.648438 919.65625 147.878906 971.070312 209.570312 C 933.75 245.105469 878.910156 228.628906 856.511719 193.648438 " fill-opacity="1" fill-rule="nonzero"/><path fill="#738323" d="M 913.789062 228.882812 C 910.851562 228.546875 907.933594 228.039062 905.0625 227.367188 C 898.960938 218.832031 891.617188 208.675781 885.953125 200.925781 L 858.894531 197.128906 C 858.074219 195.988281 857.273438 194.832031 856.507812 193.652344 C 856.507812 193.652344 857.953125 192.613281 860.535156 191.070312 L 873.242188 192.855469 L 873.359375 192.769531 C 887.066406 185.855469 896.941406 180.945312 904.09375 177.441406 C 905.445312 177.371094 906.820312 177.332031 908.203125 177.332031 C 911.214844 177.332031 914.300781 177.507812 917.4375 177.898438 C 909.355469 181.746094 895.667969 188.539062 884.027344 194.371094 L 901.949219 196.886719 C 915.8125 189.894531 925.679688 184.996094 932.753906 181.539062 C 935.296875 182.433594 937.847656 183.492188 940.410156 184.738281 C 932.605469 188.527344 922.121094 193.730469 912.785156 198.402344 L 954.273438 204.226562 C 955.972656 204.46875 957.160156 206.03125 956.917969 207.738281 C 956.699219 209.292969 955.367188 210.414062 953.84375 210.414062 C 953.695312 210.414062 953.554688 210.40625 953.40625 210.386719 L 931.109375 207.257812 C 936.597656 214.789062 940.976562 220.859375 944.515625 225.796875 C 942.398438 226.511719 940.261719 227.082031 938.121094 227.582031 C 932.863281 220.253906 927.140625 212.371094 922.539062 206.054688 L 894.535156 202.121094 C 903.566406 214.539062 909.660156 223.027344 913.789062 228.882812 " fill-opacity="1" fill-rule="nonzero"/><path fill="#e8a81b" d="M 795.253906 321.449219 C 795.253906 321.449219 818.992188 267.78125 875.773438 288.433594 C 864.957031 325.667969 823.066406 335.710938 795.253906 321.449219 " fill-opacity="1" fill-rule="nonzero"/><path fill="#e58e1a" d="M 839.589844 324.992188 C 832.394531 321.75 823.769531 317.929688 817.152344 315.027344 L 798.125 322.808594 C 797.15625 322.382812 796.195312 321.929688 795.253906 321.445312 C 795.277344 321.417969 795.8125 320.203125 796.894531 318.25 L 805.835938 314.597656 L 805.878906 314.496094 C 812.171875 304.816406 816.734375 297.882812 820.058594 292.898438 C 822.773438 291.125 825.714844 289.503906 828.914062 288.144531 C 825.117188 293.703125 818.78125 303.308594 813.417969 311.5 L 826.019531 306.355469 C 832.394531 296.558594 836.957031 289.636719 840.246094 284.707031 C 842.242188 284.328125 844.296875 284.050781 846.4375 283.890625 C 842.792969 289.308594 837.941406 296.664062 833.644531 303.238281 L 862.824219 291.316406 C 863.109375 291.199219 863.410156 291.144531 863.703125 291.144531 C 864.628906 291.144531 865.503906 291.6875 865.878906 292.597656 C 866.359375 293.796875 865.792969 295.15625 864.59375 295.652344 L 848.914062 302.058594 C 855.324219 304.875 860.476562 307.164062 864.644531 309.03125 C 863.535156 310.300781 862.367188 311.480469 861.160156 312.617188 C 854.964844 309.84375 848.265625 306.878906 842.886719 304.519531 L 823.183594 312.570312 C 833.761719 317.21875 840.933594 320.433594 845.835938 322.679688 C 843.796875 323.570312 841.710938 324.34375 839.589844 324.992188 " fill-opacity="1" fill-rule="nonzero"/><path fill="#f2592b" d="M 1034.304688 95.101562 C 1030.8125 94.09375 1027.65625 92.53125 1025.304688 91.164062 C 1023.140625 89.90625 1020.339844 90.605469 1019.117188 92.792969 C 1017.214844 96.179688 1013.808594 99.949219 1008.5625 97.980469 C 1002.882812 95.84375 1004.605469 90.203125 1007.742188 86.335938 C 1009.277344 84.449219 1008.519531 81.582031 1006.21875 80.792969 C 1002.882812 79.65625 999.515625 75.828125 996.933594 72.035156 C 995.269531 69.597656 991.703125 69.597656 990.039062 72.035156 C 987.453125 75.828125 984.089844 79.65625 980.769531 80.792969 C 978.453125 81.582031 977.695312 84.449219 979.234375 86.335938 C 982.375 90.203125 984.097656 95.84375 978.417969 97.980469 C 973.164062 99.949219 969.765625 96.179688 967.859375 92.792969 C 966.636719 90.605469 963.835938 89.90625 961.675781 91.164062 C 959.324219 92.53125 956.167969 94.09375 952.671875 95.101562 C 950.058594 95.84375 948.96875 98.941406 950.589844 101.121094 C 952.527344 103.726562 952.953125 106.425781 952.757812 109.871094 C 952.578125 112.976562 955.667969 115.351562 958.589844 114.308594 C 963.492188 112.5625 969.15625 112.867188 970.753906 119.894531 C 972.484375 127.523438 962.390625 129.902344 955.726562 130.640625 C 952.960938 130.945312 950.988281 133.492188 951.5 136.226562 C 952.152344 139.726562 952.667969 144.648438 951.949219 149.882812 C 951.652344 152.046875 953.300781 153.964844 955.488281 154.117188 C 959.929688 154.425781 964.378906 156.136719 967.984375 157.957031 C 970.566406 159.261719 973.664062 157.371094 973.554688 154.476562 C 973.425781 151.011719 974.65625 147.5 979.558594 146.183594 C 990.480469 143.261719 991.808594 156.808594 991.808594 156.808594 L 991.035156 170.160156 L 993.488281 170.695312 L 995.941406 170.160156 L 995.167969 156.808594 C 995.167969 156.808594 996.5 143.261719 1007.410156 146.183594 C 1012.324219 147.5 1013.554688 151.011719 1013.421875 154.476562 C 1013.316406 157.371094 1016.40625 159.261719 1018.988281 157.957031 C 1022.597656 156.136719 1027.039062 154.425781 1031.492188 154.117188 C 1033.667969 153.964844 1035.324219 152.046875 1035.023438 149.882812 C 1034.3125 144.648438 1034.828125 139.726562 1035.476562 136.226562 C 1035.984375 133.492188 1034.007812 130.945312 1031.253906 130.640625 C 1024.582031 129.902344 1014.488281 127.523438 1016.222656 119.894531 C 1017.824219 112.867188 1023.496094 112.5625 1028.378906 114.308594 C 1031.316406 115.351562 1034.398438 112.976562 1034.21875 109.871094 C 1034.023438 106.425781 1034.449219 103.726562 1036.386719 101.121094 C 1038.007812 98.941406 1036.917969 95.84375 1034.304688 95.101562 " fill-opacity="1" fill-rule="nonzero"/><path fill="#a5a7a6" d="M 993.496094 170.6875 L 991.417969 170.234375 L 993.496094 170.6875 L 995.296875 170.289062 L 993.496094 170.6875 M 991.808594 156.804688 C 991.808594 156.804688 991.675781 155.464844 991.160156 153.71875 C 991.675781 155.464844 991.808594 156.804688 991.808594 156.804688 M 995.171875 156.804688 C 995.171875 156.796875 995.304688 155.457031 995.828125 153.710938 L 995.828125 153.71875 C 995.3125 155.457031 995.171875 156.796875 995.171875 156.804688 " fill-opacity="1" fill-rule="nonzero"/><path fill="#f04127" d="M 993.492188 170.6875 L 991.417969 170.234375 L 991.160156 170.179688 L 991.160156 168.082031 L 991.804688 156.804688 C 991.804688 156.804688 991.675781 155.46875 991.160156 153.71875 L 991.160156 141.46875 C 989.0625 138.8125 986.519531 137.300781 983.382812 136.933594 C 982.859375 136.875 982.324219 136.847656 981.785156 136.847656 C 972.386719 136.847656 962.023438 145.789062 961.914062 145.878906 C 961.476562 146.269531 960.933594 146.457031 960.386719 146.457031 C 959.730469 146.457031 959.085938 146.183594 958.628906 145.652344 C 957.777344 144.679688 957.878906 143.207031 958.855469 142.363281 C 959.316406 141.957031 968.867188 133.757812 979.09375 132.390625 L 976.421875 123.398438 C 976.054688 122.164062 976.761719 120.863281 977.996094 120.5 C 978.214844 120.425781 978.449219 120.398438 978.664062 120.398438 C 979.667969 120.398438 980.59375 121.058594 980.898438 122.070312 L 983.933594 132.300781 C 986.628906 132.613281 989.019531 133.597656 991.160156 135.105469 L 991.160156 129.667969 C 989.996094 127.085938 981.757812 110.414062 959.730469 103.96875 C 958.488281 103.613281 957.777344 102.320312 958.144531 101.082031 C 958.441406 100.0625 959.382812 99.402344 960.386719 99.402344 C 960.601562 99.402344 960.816406 99.429688 961.039062 99.496094 C 977.046875 104.171875 986.296875 113.644531 991.160156 120.460938 L 991.160156 81.976562 C 991.160156 80.6875 992.203125 79.644531 993.492188 79.644531 C 994.777344 79.644531 995.828125 80.6875 995.828125 81.976562 L 995.828125 120.460938 C 1000.671875 113.640625 1009.929688 104.171875 1025.941406 99.496094 C 1026.152344 99.429688 1026.375 99.394531 1026.59375 99.394531 C 1027.597656 99.394531 1028.53125 100.0625 1028.835938 101.082031 C 1029.191406 102.320312 1028.480469 103.613281 1027.246094 103.96875 C 1005.128906 110.441406 996.976562 127.070312 995.828125 129.664062 L 995.828125 135.105469 C 997.960938 133.597656 1000.351562 132.613281 1003.035156 132.300781 L 1006.082031 122.070312 C 1006.382812 121.058594 1007.300781 120.398438 1008.308594 120.398438 C 1008.53125 120.398438 1008.753906 120.425781 1008.976562 120.5 C 1010.210938 120.863281 1010.921875 122.164062 1010.558594 123.398438 L 1007.875 132.382812 C 1018.089844 133.75 1027.660156 141.957031 1028.125 142.363281 C 1029.101562 143.207031 1029.199219 144.679688 1028.351562 145.652344 C 1027.894531 146.183594 1027.238281 146.457031 1026.59375 146.457031 C 1026.046875 146.457031 1025.5 146.269531 1025.0625 145.878906 C 1024.957031 145.789062 1014.542969 136.847656 1005.160156 136.847656 C 1004.640625 136.847656 1004.105469 136.875 1003.585938 136.933594 C 1000.449219 137.300781 997.917969 138.820312 995.828125 141.46875 L 995.828125 153.71875 C 995.304688 155.453125 995.164062 156.800781 995.164062 156.804688 L 995.828125 168.105469 L 995.828125 170.179688 L 995.296875 170.292969 L 993.492188 170.6875 " fill-opacity="1" fill-rule="nonzero"/><path fill="#6ebde3" d="M 1185.796875 265.808594 L 1178.320312 241.136719 C 1176.195312 234.128906 1168.792969 230.171875 1161.789062 232.296875 L 1135.339844 240.3125 C 1128.34375 242.4375 1124.378906 249.839844 1126.5 256.84375 L 1133.984375 281.515625 C 1135.429688 286.316406 1140.078125 289.425781 1145.066406 288.9375 L 1147.605469 297.308594 L 1145.460938 300.699219 C 1143.03125 304.5625 1142.394531 309.289062 1143.71875 313.65625 L 1152.589844 342.949219 C 1154.847656 350.398438 1162.730469 354.613281 1170.179688 352.355469 L 1176.921875 350.308594 L 1182.589844 348.589844 L 1188.261719 346.871094 L 1195.011719 344.824219 C 1202.460938 342.566406 1206.671875 334.691406 1204.414062 327.238281 L 1195.53125 297.949219 C 1194.214844 293.578125 1191.054688 290.003906 1186.886719 288.144531 L 1183.230469 286.507812 L 1180.691406 278.140625 C 1185.117188 275.769531 1187.253906 270.609375 1185.796875 265.808594 " fill-opacity="1" fill-rule="nonzero"/><path fill="#f2592b" d="M 1149.679688 221.527344 L 1139.429688 224.632812 C 1134.953125 225.988281 1132.425781 230.714844 1133.785156 235.1875 L 1135.335938 240.316406 L 1161.785156 232.296875 L 1160.226562 227.167969 C 1158.875 222.699219 1154.148438 220.171875 1149.679688 221.527344 " fill-opacity="1" fill-rule="nonzero"/><path fill="#a5a7a6" d="M 1161.785156 232.296875 C 1163.070312 231.90625 1164.359375 231.722656 1165.632812 231.722656 C 1164.359375 231.722656 1163.070312 231.90625 1161.785156 232.296875 " fill-opacity="1" fill-rule="nonzero"/><path fill="#58a6dc" d="M 1186.621094 347.371094 L 1169.441406 290.6875 L 1183.226562 286.511719 L 1180.691406 278.144531 L 1166.90625 282.320312 L 1152.589844 235.085938 L 1161.785156 232.296875 C 1163.074219 231.910156 1164.359375 231.726562 1165.632812 231.726562 C 1171.316406 231.726562 1176.578125 235.414062 1178.3125 241.140625 L 1185.789062 265.8125 C 1187.25 270.613281 1185.113281 275.773438 1180.691406 278.144531 L 1183.226562 286.511719 L 1186.886719 288.144531 C 1191.050781 290.003906 1194.207031 293.585938 1195.527344 297.953125 L 1204.40625 327.242188 C 1204.820312 328.609375 1205.019531 329.992188 1205.019531 331.351562 C 1205.007812 337.398438 1201.085938 342.984375 1195.007812 344.832031 L 1186.621094 347.371094 " fill-opacity="1" fill-rule="nonzero"/><path fill="#f04127" d="M 1152.589844 235.085938 L 1148.585938 221.859375 L 1149.679688 221.527344 C 1150.496094 221.277344 1151.328125 221.160156 1152.144531 221.160156 C 1155.769531 221.160156 1159.121094 223.515625 1160.226562 227.167969 L 1161.785156 232.296875 L 1152.589844 235.085938 " fill-opacity="1" fill-rule="nonzero"/><path fill="#58a6dc" d="M 1147.605469 297.304688 L 1145.066406 288.9375 L 1166.914062 282.316406 L 1169.449219 290.683594 L 1147.605469 297.304688 " fill-opacity="1" fill-rule="nonzero"/><path fill="#4988cf" d="M 1169.445312 290.6875 L 1166.910156 282.320312 L 1180.691406 278.140625 L 1183.226562 286.507812 L 1169.445312 290.6875 " fill-opacity="1" fill-rule="nonzero"/><path fill="#d3c3c7" d="M 1314.382812 158.734375 L 1249.382812 226.800781 L 1223.757812 202.328125 L 1288.761719 134.261719 L 1314.382812 158.734375 " fill-opacity="1" fill-rule="nonzero"/><path fill="#ffffff" d="M 1306.386719 167.105469 L 1309.480469 163.867188 L 1306.386719 167.105469 M 1280.007812 143.433594 L 1280.769531 142.632812 L 1280.007812 143.433594 " fill-opacity="1" fill-rule="nonzero"/><path fill="#e0d4d6" d="M 1305.625 167.910156 L 1290.015625 152.996094 L 1293.871094 148.957031 L 1309.480469 163.867188 L 1306.386719 167.105469 L 1305.625 167.910156 " fill-opacity="1" fill-rule="nonzero"/><path fill="#b79fa6" d="M 1300.730469 173.03125 L 1305.621094 167.910156 L 1280 143.4375 L 1275.109375 148.558594 L 1300.730469 173.03125 " fill-opacity="1" fill-rule="nonzero"/><path fill="#c7b4b8" d="M 1281.046875 185.757812 C 1280.160156 185.757812 1279.285156 185.433594 1278.605469 184.777344 L 1268.699219 175.316406 L 1273.589844 170.195312 L 1283.488281 179.65625 C 1284.90625 181.007812 1284.957031 183.25 1283.601562 184.660156 C 1282.910156 185.390625 1281.984375 185.757812 1281.046875 185.757812 " fill-opacity="1" fill-rule="nonzero"/><path fill="#bf2136" d="M 1248.695312 180.242188 C 1245.242188 183.863281 1247.265625 191.421875 1253.226562 197.121094 C 1259.191406 202.816406 1266.839844 204.5 1270.296875 200.875 C 1273.761719 197.253906 1271.730469 189.695312 1265.765625 183.996094 C 1259.800781 178.296875 1252.160156 176.617188 1248.695312 180.242188 " fill-opacity="1" fill-rule="nonzero"/><path fill="#bf2136" d="M 1217.113281 228.917969 L 1224.46875 235.949219 L 1242.203125 219.941406 L 1232.289062 210.464844 L 1217.113281 228.917969 " fill-opacity="1" fill-rule="nonzero"/><path fill="#a5a7a6" d="M 1298.773438 143.820312 L 1288.765625 134.257812 L 1298.785156 143.820312 " fill-opacity="1" fill-rule="nonzero"/><path fill="#c7b4b8" d="M 1233.769531 211.890625 L 1223.761719 202.328125 L 1279.753906 143.699219 L 1275.113281 148.558594 L 1285.125 158.117188 L 1273.59375 170.195312 L 1269.289062 166.082031 C 1268.601562 165.425781 1267.71875 165.105469 1266.84375 165.105469 C 1265.917969 165.105469 1264.980469 165.46875 1264.28125 166.199219 C 1262.929688 167.613281 1262.980469 169.855469 1264.394531 171.203125 L 1268.699219 175.316406 L 1262.75 181.546875 C 1259.695312 179.449219 1256.46875 178.328125 1253.742188 178.328125 C 1251.699219 178.328125 1249.933594 178.949219 1248.695312 180.242188 C 1245.796875 183.277344 1246.753906 189.070312 1250.640625 194.222656 L 1233.769531 211.890625 M 1293.871094 148.957031 L 1283.859375 139.394531 L 1280.769531 142.632812 L 1288.761719 134.261719 L 1298.773438 143.824219 L 1293.871094 148.957031 " fill-opacity="1" fill-rule="nonzero"/><path fill="#d8c8cc" d="M 1290.015625 152.996094 L 1280.011719 143.433594 L 1280.769531 142.632812 L 1283.859375 139.394531 L 1293.871094 148.957031 L 1290.015625 152.996094 " fill-opacity="1" fill-rule="nonzero"/><path fill="#a3868d" d="M 1285.117188 158.121094 L 1275.109375 148.558594 L 1279.746094 143.703125 L 1280 143.4375 L 1290.011719 153 L 1285.117188 158.121094 " fill-opacity="1" fill-rule="nonzero"/><path fill="#b79fa6" d="M 1268.695312 175.316406 L 1264.398438 171.203125 C 1262.984375 169.855469 1262.933594 167.613281 1264.277344 166.199219 C 1264.980469 165.46875 1265.910156 165.105469 1266.847656 165.105469 C 1267.722656 165.105469 1268.601562 165.425781 1269.289062 166.082031 L 1273.589844 170.195312 L 1268.695312 175.316406 " fill-opacity="1" fill-rule="nonzero"/><path fill="#ab1b2a" d="M 1250.640625 194.226562 C 1246.746094 189.074219 1245.792969 183.28125 1248.695312 180.242188 C 1249.925781 178.949219 1251.703125 178.332031 1253.734375 178.332031 C 1256.472656 178.332031 1259.6875 179.453125 1262.746094 181.546875 L 1250.640625 194.226562 " fill-opacity="1" fill-rule="nonzero"/><path fill="#91a321" d="M 206.179688 376.308594 L 104.9375 376.308594 C 70.769531 376.308594 43.070312 404.007812 43.070312 438.183594 L 43.070312 450.269531 L 268.054688 450.269531 L 268.054688 438.183594 C 268.054688 404.007812 240.351562 376.308594 206.179688 376.308594 " fill-opacity="1" fill-rule="nonzero"/><path fill="#91a321" d="M 43.070312 466.933594 L 43.070312 748.207031 C 43.070312 769.613281 60.417969 786.964844 81.816406 786.964844 L 229.308594 786.964844 C 250.707031 786.964844 268.054688 769.613281 268.054688 748.207031 L 268.054688 466.933594 L 43.070312 466.933594 " fill-opacity="1" fill-rule="nonzero"/><path fill="#acc11c" d="M 31.402344 466.933594 L 279.71875 466.933594 L 279.71875 450.269531 L 31.402344 450.269531 Z M 31.402344 466.933594 " fill-opacity="1" fill-rule="nonzero"/><path fill="#2e3247" d="M 205.351562 404.429688 L 105.773438 404.429688 C 95.53125 404.429688 87.230469 412.734375 87.230469 422.972656 C 87.230469 433.21875 95.53125 441.523438 105.773438 441.523438 L 205.351562 441.523438 C 215.589844 441.523438 223.890625 433.21875 223.890625 422.972656 C 223.890625 412.734375 215.589844 404.429688 205.351562 404.429688 " fill-opacity="1" fill-rule="nonzero"/><path fill="#738323" d="M 72.230469 492.773438 L 81.398438 492.773438 L 81.398438 481.523438 L 72.230469 481.523438 Z M 72.230469 492.773438 " fill-opacity="1" fill-rule="nonzero"/><path fill="#738323" d="M 123.0625 492.773438 L 132.230469 492.773438 L 132.230469 481.523438 L 123.0625 481.523438 Z M 123.0625 492.773438 " fill-opacity="1" fill-rule="nonzero"/><path fill="#738323" d="M 173.890625 492.773438 L 183.058594 492.773438 L 183.058594 481.523438 L 173.890625 481.523438 Z M 173.890625 492.773438 " fill-opacity="1" fill-rule="nonzero"/><path fill="#c7b4b8" d="M 115.699219 655.613281 C 113.191406 651.269531 113.191406 646.082031 115.699219 641.734375 L 119.097656 635.84375 L 126.140625 639.910156 C 128.371094 641.199219 131.242188 638.699219 130.59375 636.03125 L 125.894531 616.730469 C 125.152344 613.6875 122.269531 612.019531 119.257812 612.898438 L 100.199219 618.480469 C 97.566406 619.246094 96.832031 622.988281 99.0625 624.277344 L 106.109375 628.347656 L 102.710938 634.230469 C 97.492188 643.273438 97.492188 654.070312 102.707031 663.113281 C 107.925781 672.152344 117.273438 677.546875 127.714844 677.546875 L 148.6875 677.546875 L 148.6875 662.546875 L 127.714844 662.546875 C 122.695312 662.546875 118.207031 659.953125 115.699219 655.613281 " fill-opacity="1" fill-rule="nonzero"/><path fill="#c7b4b8" d="M 170.492188 588.445312 L 173.890625 594.332031 L 166.84375 598.402344 C 164.613281 599.691406 165.347656 603.429688 167.980469 604.199219 L 187.039062 609.777344 C 190.050781 610.660156 192.933594 608.996094 193.675781 605.945312 L 198.375 586.652344 C 199.023438 583.984375 196.152344 581.484375 193.921875 582.769531 L 186.878906 586.835938 L 183.480469 580.949219 C 178.257812 571.90625 168.910156 566.503906 158.472656 566.503906 C 148.035156 566.503906 138.6875 571.90625 133.46875 580.949219 L 122.980469 599.113281 L 135.96875 606.617188 L 146.457031 588.445312 C 148.964844 584.105469 153.460938 581.507812 158.472656 581.507812 C 163.492188 581.507812 167.980469 584.105469 170.492188 588.445312 " fill-opacity="1" fill-rule="nonzero"/><path fill="#c7b4b8" d="M 214.238281 634.230469 L 203.753906 616.066406 L 190.765625 623.570312 L 201.253906 641.734375 C 203.757812 646.082031 203.757812 651.269531 201.253906 655.613281 C 198.742188 659.953125 194.25 662.546875 189.234375 662.546875 L 182.433594 662.546875 L 182.433594 654.414062 C 182.433594 651.839844 178.832031 650.605469 176.847656 652.503906 L 162.484375 666.214844 C 160.21875 668.382812 160.21875 671.714844 162.484375 673.882812 L 176.847656 687.597656 C 178.832031 689.492188 182.433594 688.261719 182.433594 685.683594 L 182.433594 677.546875 L 189.234375 677.546875 C 199.675781 677.546875 209.023438 672.152344 214.242188 663.113281 C 219.457031 654.074219 219.457031 643.273438 214.238281 634.230469 " fill-opacity="1" fill-rule="nonzero"/><path fill="#2e3247" d="M 101.703125 810.035156 L 78.628906 810.035156 L 78.628906 786.964844 L 101.703125 786.964844 L 101.703125 810.035156 " fill-opacity="1" fill-rule="nonzero"/><path fill="#2e3247" d="M 209.421875 810.035156 L 232.492188 810.035156 L 232.492188 786.964844 L 209.421875 786.964844 L 209.421875 810.035156 " fill-opacity="1" fill-rule="nonzero"/><path fill="#738323" d="M 196.121094 481.519531 L 183.058594 481.519531 L 183.058594 466.933594 L 196.121094 466.933594 L 196.121094 481.519531 M 173.890625 481.519531 L 132.230469 481.519531 L 132.230469 466.933594 L 173.890625 466.933594 L 173.890625 481.519531 M 123.0625 481.519531 L 81.398438 481.519531 L 81.398438 466.933594 L 123.0625 466.933594 L 123.0625 481.519531 M 72.230469 481.519531 L 43.070312 481.519531 L 43.070312 466.933594 L 72.230469 466.933594 L 72.230469 481.519531 " fill-opacity="1" fill-rule="nonzero"/><path fill="#515c1f" d="M 72.230469 481.519531 L 81.398438 481.519531 L 81.398438 466.933594 L 72.230469 466.933594 Z M 72.230469 481.519531 " fill-opacity="1" fill-rule="nonzero"/><path fill="#515c1f" d="M 123.0625 481.519531 L 132.230469 481.519531 L 132.230469 466.933594 L 123.0625 466.933594 Z M 123.0625 481.519531 " fill-opacity="1" fill-rule="nonzero"/><path fill="#515c1f" d="M 173.890625 481.519531 L 183.058594 481.519531 L 183.058594 466.933594 L 173.890625 466.933594 Z M 173.890625 481.519531 " fill-opacity="1" fill-rule="nonzero"/><path fill="#a5a7a6" d="M 268.054688 450.269531 L 196.121094 450.269531 L 268.054688 450.269531 L 268.054688 438.183594 L 268.054688 450.269531 " fill-opacity="1" fill-rule="nonzero"/><path fill="#738323" d="M 268.054688 450.269531 L 196.121094 450.269531 L 196.121094 441.523438 L 205.351562 441.523438 C 215.589844 441.523438 223.890625 433.21875 223.890625 422.972656 C 223.890625 412.734375 215.589844 404.429688 205.351562 404.429688 L 196.121094 404.429688 L 196.121094 376.308594 L 206.179688 376.308594 C 240.351562 376.308594 268.054688 404.007812 268.054688 438.183594 L 268.054688 450.269531 " fill-opacity="1" fill-rule="nonzero"/><path fill="#738323" d="M 229.304688 786.964844 L 196.121094 786.964844 L 196.121094 676.742188 C 203.695312 674.917969 210.203125 670.105469 214.242188 663.113281 C 219.457031 654.074219 219.457031 643.273438 214.238281 634.230469 L 203.753906 616.066406 L 196.121094 620.476562 L 196.121094 595.902344 L 198.375 586.652344 C 198.8125 584.835938 197.628906 583.101562 196.121094 582.578125 L 196.121094 481.519531 L 229.722656 481.519531 L 229.722656 492.773438 L 238.890625 492.773438 L 238.890625 481.519531 L 268.054688 481.519531 L 268.054688 748.207031 C 268.054688 748.523438 268.050781 748.835938 268.042969 749.148438 C 267.546875 770.121094 250.394531 786.964844 229.304688 786.964844 " fill-opacity="1" fill-rule="nonzero"/><path fill="#99ac20" d="M 279.71875 466.933594 L 196.121094 466.933594 L 196.121094 450.269531 L 279.71875 450.269531 L 279.71875 466.933594 " fill-opacity="1" fill-rule="nonzero"/><path fill="#1f222f" d="M 205.351562 441.523438 L 196.121094 441.523438 L 196.121094 404.429688 L 205.351562 404.429688 C 215.589844 404.429688 223.890625 412.734375 223.890625 422.972656 C 223.890625 433.21875 215.589844 441.523438 205.351562 441.523438 " fill-opacity="1" fill-rule="nonzero"/><path fill="#515c1f" d="M 229.722656 492.773438 L 238.890625 492.773438 L 238.890625 481.523438 L 229.722656 481.523438 Z M 229.722656 492.773438 " fill-opacity="1" fill-rule="nonzero"/><path fill="#b79fa6" d="M 196.121094 595.902344 L 196.121094 582.578125 C 197.628906 583.101562 198.8125 584.835938 198.375 586.652344 L 196.121094 595.902344 " fill-opacity="1" fill-rule="nonzero"/><path fill="#738323" d="M 196.121094 660.742188 L 196.121094 632.847656 L 201.253906 641.734375 C 203.757812 646.082031 203.757812 651.269531 201.253906 655.613281 C 199.984375 657.804688 198.210938 659.546875 196.121094 660.742188 " fill-opacity="1" fill-rule="nonzero"/><path fill="#b79fa6" d="M 196.121094 676.742188 L 196.121094 660.742188 C 198.210938 659.546875 199.984375 657.804688 201.253906 655.613281 C 203.757812 651.269531 203.757812 646.082031 201.253906 641.734375 L 196.121094 632.847656 L 196.121094 620.476562 L 203.753906 616.066406 L 214.238281 634.230469 C 219.457031 643.273438 219.457031 654.074219 214.242188 663.113281 C 210.203125 670.105469 203.695312 674.917969 196.121094 676.742188 " fill-opacity="1" fill-rule="nonzero"/><path fill="#515c1f" d="M 268.054688 481.519531 L 238.890625 481.519531 L 238.890625 466.933594 L 268.054688 466.933594 L 268.054688 481.519531 M 229.722656 481.519531 L 196.121094 481.519531 L 196.121094 466.933594 L 229.722656 466.933594 L 229.722656 481.519531 " fill-opacity="1" fill-rule="nonzero"/><path fill="#363b17" d="M 229.722656 481.519531 L 238.890625 481.519531 L 238.890625 466.933594 L 229.722656 466.933594 Z M 229.722656 481.519531 " fill-opacity="1" fill-rule="nonzero"/><path fill="#91a321" d="M 669.089844 90.34375 C 664.117188 83.535156 661.617188 75.238281 661.980469 66.808594 L 663.996094 20.976562 L 665.652344 21.289062 C 668.640625 21.867188 671.527344 19.90625 672.105469 16.921875 C 672.675781 13.933594 670.71875 11.042969 667.730469 10.476562 L 658.675781 8.738281 L 655.597656 8.152344 L 646.542969 6.417969 C 643.554688 5.839844 640.671875 7.796875 640.097656 10.785156 C 639.523438 13.777344 641.484375 16.664062 644.464844 17.234375 L 646.132812 17.550781 L 631.066406 60.890625 C 628.296875 68.851562 622.902344 75.636719 615.765625 80.128906 C 607.046875 85.613281 601 94.464844 599.070312 104.574219 L 585.085938 177.546875 C 583.207031 187.367188 589.648438 196.855469 599.46875 198.742188 L 618.402344 202.371094 L 621.464844 202.957031 L 640.394531 206.585938 C 650.21875 208.460938 659.710938 202.027344 661.597656 192.207031 L 675.566406 119.234375 C 677.503906 109.125 675.160156 98.660156 669.089844 90.34375 " fill-opacity="1" fill-rule="nonzero"/><path fill="#c7b4b8" d="M 639.332031 101.378906 C 624.152344 98.46875 609.796875 106.835938 607.257812 120.066406 C 604.730469 133.292969 614.976562 146.375 630.160156 149.285156 C 645.335938 152.191406 659.695312 143.828125 662.226562 130.597656 C 664.761719 117.371094 654.507812 104.289062 639.332031 101.378906 " fill-opacity="1" fill-rule="nonzero"/><path fill="#2e3247" d="M 649.382812 164.371094 L 606.71875 156.191406 C 603.316406 155.539062 600.039062 157.769531 599.386719 161.164062 C 598.738281 164.566406 600.96875 167.84375 604.363281 168.496094 L 647.023438 176.671875 C 650.425781 177.324219 653.703125 175.09375 654.355469 171.699219 C 655.007812 168.296875 652.78125 165.019531 649.382812 164.371094 " fill-opacity="1" fill-rule="nonzero"/><path fill="#738323" d="M 663.464844 33.003906 L 663.996094 20.980469 L 663.464844 33.003906 M 656.25 31.617188 L 642.167969 28.921875 L 646.125 17.554688 L 658.484375 19.925781 L 656.25 31.617188 " fill-opacity="1" fill-rule="nonzero"/><path fill="#a5a7a6" d="M 643.820312 206.910156 C 642.691406 206.910156 641.542969 206.808594 640.390625 206.585938 L 623.359375 203.320312 L 640.390625 206.585938 C 641.542969 206.808594 642.691406 206.910156 643.820312 206.910156 M 674.988281 102.730469 C 673.820312 98.316406 671.835938 94.113281 669.089844 90.347656 C 671.835938 94.113281 673.820312 98.316406 674.988281 102.730469 " fill-opacity="1" fill-rule="nonzero"/><path fill="#738323" d="M 643.820312 206.914062 C 642.691406 206.914062 641.542969 206.804688 640.394531 206.589844 L 623.355469 203.320312 L 629.121094 173.242188 L 647.023438 176.675781 C 647.421875 176.75 647.816406 176.785156 648.210938 176.785156 C 651.15625 176.785156 653.78125 174.699219 654.355469 171.699219 C 655.003906 168.300781 652.78125 165.019531 649.378906 164.371094 L 631.476562 160.9375 L 633.617188 149.761719 C 634.480469 149.832031 635.335938 149.863281 636.195312 149.863281 C 648.972656 149.863281 660.039062 142.054688 662.222656 130.597656 C 664.570312 118.382812 656 106.289062 642.726562 102.222656 L 656.25 31.617188 L 663.464844 33 L 661.976562 66.8125 C 661.609375 75.238281 664.117188 83.539062 669.089844 90.351562 C 671.839844 94.117188 673.820312 98.316406 674.988281 102.734375 C 676.402344 108.066406 676.628906 113.703125 675.566406 119.238281 L 661.59375 192.207031 C 659.925781 200.878906 652.335938 206.914062 643.820312 206.914062 " fill-opacity="1" fill-rule="nonzero"/><path fill="#b79fa6" d="M 636.191406 149.863281 C 635.339844 149.863281 634.480469 149.828125 633.617188 149.757812 L 642.726562 102.222656 C 656 106.289062 664.570312 118.378906 662.226562 130.597656 C 660.035156 142.054688 648.972656 149.863281 636.191406 149.863281 " fill-opacity="1" fill-rule="nonzero"/><path fill="#1f222f" d="M 648.210938 176.78125 C 647.820312 176.78125 647.421875 176.746094 647.023438 176.671875 L 629.121094 173.242188 L 631.476562 160.9375 L 649.382812 164.371094 C 652.78125 165.019531 655.007812 168.296875 654.355469 171.699219 C 653.777344 174.695312 651.15625 176.78125 648.210938 176.78125 " fill-opacity="1" fill-rule="nonzero"/><path fill="#a5a7a6" d="M 666.699219 21.390625 C 666.351562 21.390625 666.007812 21.359375 665.65625 21.292969 L 663.996094 20.980469 L 665.65625 21.292969 C 666.007812 21.359375 666.351562 21.390625 666.699219 21.390625 M 667.730469 10.472656 L 660.558594 9.101562 L 667.730469 10.472656 " fill-opacity="1" fill-rule="nonzero"/><path fill="#738323" d="M 666.699219 21.390625 C 666.351562 21.390625 666.007812 21.359375 665.65625 21.292969 L 663.996094 20.980469 L 658.492188 19.921875 L 660.558594 9.101562 L 667.730469 10.472656 C 670.714844 11.042969 672.675781 13.933594 672.101562 16.921875 C 671.597656 19.558594 669.285156 21.390625 666.699219 21.390625 " fill-opacity="1" fill-rule="nonzero"/><path fill="#515c1f" d="M 663.464844 33 L 656.25 31.617188 L 658.484375 19.921875 L 663.996094 20.980469 L 663.464844 33 " fill-opacity="1" fill-rule="nonzero"/><path fill="#d3c3c7" d="M 119.582031 303.511719 L 37.089844 303.570312 L 37 179.601562 L 119.496094 179.542969 L 119.582031 303.511719 " fill-opacity="1" fill-rule="nonzero"/><path fill="#e8a81b" d="M 77.226562 221.210938 L 75.496094 209.671875 C 74.667969 204.152344 69.523438 200.347656 64.007812 201.175781 L 11.265625 209.085938 C 5.746094 209.914062 1.945312 215.054688 2.769531 220.574219 L 20.070312 335.964844 C 20.898438 341.484375 26.042969 345.28125 31.5625 344.457031 L 69.160156 338.816406 L 94.292969 335.050781 L 104.285156 333.550781 C 109.804688 332.726562 113.605469 327.578125 112.777344 322.058594 L 100.207031 238.199219 C 99.378906 232.679688 94.234375 228.875 88.714844 229.703125 C 83.199219 230.527344 78.054688 226.730469 77.226562 221.210938 " fill-opacity="1" fill-rule="nonzero"/><path fill="#e58e1a" d="M 25.039062 247.125 C 21.917969 247.125 19.199219 244.828125 18.753906 241.648438 L 16.9375 228.652344 C 16.453125 225.175781 18.875 221.960938 22.347656 221.476562 C 22.648438 221.433594 22.945312 221.410156 23.238281 221.410156 C 26.355469 221.410156 29.078125 223.710938 29.523438 226.886719 L 31.339844 239.886719 C 31.824219 243.363281 29.402344 246.570312 25.925781 247.0625 C 25.628906 247.105469 25.332031 247.125 25.039062 247.125 " fill-opacity="1" fill-rule="nonzero"/><path fill="#e8a81b" d="M 577.910156 376.308594 L 476.667969 376.308594 C 442.496094 376.308594 414.796875 404.007812 414.796875 438.183594 L 414.796875 450.269531 L 639.78125 450.269531 L 639.78125 438.183594 C 639.78125 404.007812 612.082031 376.308594 577.910156 376.308594 " fill-opacity="1" fill-rule="nonzero"/><path fill="#e8a81b" d="M 414.796875 466.933594 L 414.796875 748.207031 C 414.796875 769.613281 432.144531 786.964844 453.546875 786.964844 L 601.039062 786.964844 C 622.433594 786.964844 639.78125 769.613281 639.78125 748.207031 L 639.78125 466.933594 L 414.796875 466.933594 " fill-opacity="1" fill-rule="nonzero"/><path fill="#edd922" d="M 403.128906 466.933594 L 651.449219 466.933594 L 651.449219 450.269531 L 403.128906 450.269531 Z M 403.128906 466.933594 " fill-opacity="1" fill-rule="nonzero"/><path fill="#2e3247" d="M 577.078125 404.429688 L 477.5 404.429688 C 467.261719 404.429688 458.960938 412.734375 458.960938 422.972656 C 458.960938 433.21875 467.261719 441.523438 477.5 441.523438 L 577.078125 441.523438 C 587.316406 441.523438 595.621094 433.21875 595.621094 422.972656 C 595.621094 412.734375 587.316406 404.429688 577.078125 404.429688 " fill-opacity="1" fill-rule="nonzero"/><path fill="#e58e1a" d="M 443.964844 492.773438 L 453.125 492.773438 L 453.125 481.523438 L 443.964844 481.523438 Z M 443.964844 492.773438 " fill-opacity="1" fill-rule="nonzero"/><path fill="#e58e1a" d="M 494.789062 492.773438 L 503.957031 492.773438 L 503.957031 481.523438 L 494.789062 481.523438 Z M 494.789062 492.773438 " fill-opacity="1" fill-rule="nonzero"/><path fill="#e58e1a" d="M 545.621094 492.773438 L 554.789062 492.773438 L 554.789062 481.523438 L 545.621094 481.523438 Z M 545.621094 492.773438 " fill-opacity="1" fill-rule="nonzero"/><path fill="#c7b4b8" d="M 585.96875 634.230469 L 575.480469 616.066406 L 562.492188 623.570312 L 572.980469 641.734375 C 575.488281 646.082031 575.488281 651.269531 572.980469 655.613281 C 570.46875 659.953125 565.980469 662.546875 560.964844 662.546875 L 554.160156 662.546875 L 554.160156 654.414062 C 554.160156 651.839844 550.558594 650.605469 548.574219 652.503906 L 534.210938 666.214844 C 531.945312 668.382812 531.945312 671.714844 534.210938 673.882812 L 548.574219 687.597656 C 550.558594 689.492188 554.160156 688.261719 554.160156 685.683594 L 554.160156 677.546875 L 560.964844 677.546875 C 571.402344 677.546875 580.746094 672.152344 585.96875 663.113281 C 591.191406 654.074219 591.191406 643.273438 585.96875 634.230469 M 542.222656 588.445312 L 545.621094 594.332031 L 538.574219 598.402344 C 536.34375 599.691406 537.074219 603.429688 539.710938 604.199219 L 558.769531 609.777344 C 561.777344 610.660156 564.664062 608.996094 565.402344 605.945312 L 570.105469 586.652344 C 570.75 583.984375 567.878906 581.484375 565.652344 582.769531 L 558.609375 586.835938 L 555.210938 580.949219 C 549.988281 571.90625 540.640625 566.503906 530.203125 566.503906 C 519.765625 566.503906 510.417969 571.90625 505.199219 580.949219 L 494.710938 599.113281 L 507.699219 606.617188 L 518.1875 588.445312 C 520.695312 584.105469 525.1875 581.507812 530.203125 581.507812 C 535.21875 581.507812 539.710938 584.105469 542.222656 588.445312 M 499.441406 662.546875 L 520.417969 662.546875 L 520.417969 677.546875 L 499.441406 677.546875 C 489 677.546875 479.652344 672.152344 474.433594 663.113281 C 469.21875 654.074219 469.21875 643.273438 474.4375 634.230469 L 477.839844 628.347656 L 470.792969 624.277344 C 468.5625 622.988281 469.292969 619.246094 471.925781 618.476562 L 490.988281 612.898438 C 493.996094 612.019531 496.882812 613.6875 497.621094 616.730469 L 502.320312 636.03125 C 502.96875 638.699219 500.097656 641.199219 497.867188 639.910156 L 490.828125 635.84375 L 487.429688 641.734375 C 484.921875 646.082031 484.921875 651.269531 487.429688 655.613281 C 489.933594 659.953125 494.421875 662.546875 499.441406 662.546875 " fill-opacity="1" fill-rule="nonzero"/><path fill="#2e3247" d="M 473.429688 810.035156 L 450.359375 810.035156 L 450.359375 786.964844 L 473.429688 786.964844 L 473.429688 810.035156 " fill-opacity="1" fill-rule="nonzero"/><path fill="#2e3247" d="M 581.152344 810.035156 L 604.222656 810.035156 L 604.222656 786.964844 L 581.152344 786.964844 L 581.152344 810.035156 " fill-opacity="1" fill-rule="nonzero"/><path fill="#e58e1a" d="M 639.78125 481.519531 L 639.78125 466.933594 L 639.78125 481.519531 M 567.851562 481.519531 L 554.789062 481.519531 L 554.789062 466.933594 L 567.851562 466.933594 L 567.851562 481.519531 M 545.621094 481.519531 L 503.957031 481.519531 L 503.957031 466.933594 L 545.621094 466.933594 L 545.621094 481.519531 M 494.789062 481.519531 L 453.125 481.519531 L 453.125 466.933594 L 494.789062 466.933594 L 494.789062 481.519531 M 443.964844 481.519531 L 414.796875 481.519531 L 414.796875 466.933594 L 443.964844 466.933594 L 443.964844 481.519531 " fill-opacity="1" fill-rule="nonzero"/><path fill="#e36f19" d="M 443.964844 481.519531 L 453.125 481.519531 L 453.125 466.933594 L 443.964844 466.933594 Z M 443.964844 481.519531 " fill-opacity="1" fill-rule="nonzero"/><path fill="#e36f19" d="M 494.789062 481.519531 L 503.957031 481.519531 L 503.957031 466.933594 L 494.789062 466.933594 Z M 494.789062 481.519531 " fill-opacity="1" fill-rule="nonzero"/><path fill="#e36f19" d="M 545.621094 481.519531 L 554.789062 481.519531 L 554.789062 466.933594 L 545.621094 466.933594 Z M 545.621094 481.519531 " fill-opacity="1" fill-rule="nonzero"/><path fill="#e58e1a" d="M 601.039062 786.964844 L 567.851562 786.964844 L 567.851562 676.742188 C 575.421875 674.917969 581.933594 670.105469 585.96875 663.113281 C 591.191406 654.074219 591.191406 643.273438 585.96875 634.230469 L 575.480469 616.066406 L 567.851562 620.476562 L 567.851562 595.902344 L 570.105469 586.652344 C 570.542969 584.835938 569.355469 583.101562 567.851562 582.578125 L 567.851562 481.519531 L 601.453125 481.519531 L 601.453125 492.773438 L 610.621094 492.773438 L 610.621094 481.519531 L 639.78125 481.519531 L 639.78125 748.207031 C 639.78125 769.613281 622.433594 786.964844 601.039062 786.964844 M 567.851562 660.742188 L 567.851562 632.847656 L 572.980469 641.734375 C 575.488281 646.082031 575.488281 651.269531 572.980469 655.613281 C 571.710938 657.804688 569.945312 659.546875 567.851562 660.742188 " fill-opacity="1" fill-rule="nonzero"/><path fill="#e36f19" d="M 601.453125 492.773438 L 610.621094 492.773438 L 610.621094 481.523438 L 601.453125 481.523438 Z M 601.453125 492.773438 " fill-opacity="1" fill-rule="nonzero"/><path fill="#b79fa6" d="M 567.851562 676.742188 L 567.851562 660.742188 C 569.945312 659.546875 571.710938 657.804688 572.980469 655.613281 C 575.488281 651.269531 575.488281 646.082031 572.980469 641.734375 L 567.851562 632.847656 L 567.851562 620.476562 L 575.480469 616.066406 L 585.96875 634.230469 C 591.191406 643.273438 591.191406 654.074219 585.96875 663.113281 C 581.933594 670.105469 575.421875 674.917969 567.851562 676.742188 M 567.851562 595.902344 L 567.851562 582.578125 C 569.355469 583.101562 570.542969 584.835938 570.105469 586.652344 L 567.851562 595.902344 " fill-opacity="1" fill-rule="nonzero"/><path fill="#e58e1a" d="M 639.78125 450.269531 L 567.851562 450.269531 L 567.851562 441.523438 L 577.078125 441.523438 C 587.316406 441.523438 595.621094 433.21875 595.621094 422.972656 C 595.621094 412.734375 587.316406 404.429688 577.078125 404.429688 L 567.851562 404.429688 L 567.851562 376.308594 L 577.910156 376.308594 C 612.082031 376.308594 639.78125 404.007812 639.78125 438.183594 L 639.78125 450.269531 " fill-opacity="1" fill-rule="nonzero"/><path fill="#eacb1c" d="M 651.449219 466.933594 L 567.851562 466.933594 L 567.851562 450.269531 L 651.449219 450.269531 L 651.449219 466.933594 " fill-opacity="1" fill-rule="nonzero"/><path fill="#1f222f" d="M 577.078125 441.523438 L 567.851562 441.523438 L 567.851562 404.429688 L 577.078125 404.429688 C 587.316406 404.429688 595.621094 412.734375 595.621094 422.972656 C 595.621094 433.21875 587.316406 441.523438 577.078125 441.523438 " fill-opacity="1" fill-rule="nonzero"/><path fill="#e36f19" d="M 639.78125 481.519531 L 610.621094 481.519531 L 610.621094 466.933594 L 639.78125 466.933594 L 639.78125 481.519531 M 601.453125 481.519531 L 567.851562 481.519531 L 567.851562 466.933594 L 601.453125 466.933594 L 601.453125 481.519531 " fill-opacity="1" fill-rule="nonzero"/><path fill="#da4e1e" d="M 601.453125 481.519531 L 610.621094 481.519531 L 610.621094 466.933594 L 601.453125 466.933594 Z M 601.453125 481.519531 " fill-opacity="1" fill-rule="nonzero"/><path fill="#bf2136" d="M 949.640625 376.304688 L 848.394531 376.304688 C 814.222656 376.304688 786.527344 404.011719 786.527344 438.183594 L 786.527344 450.269531 L 1011.515625 450.269531 L 1011.515625 438.183594 C 1011.515625 404.011719 983.808594 376.304688 949.640625 376.304688 " fill-opacity="1" fill-rule="nonzero"/><path fill="#bf2136" d="M 786.527344 466.933594 L 786.527344 748.210938 C 786.527344 769.613281 803.871094 786.964844 825.273438 786.964844 L 972.761719 786.964844 C 994.164062 786.964844 1011.515625 769.613281 1011.515625 748.210938 L 1011.515625 466.933594 L 786.527344 466.933594 " fill-opacity="1" fill-rule="nonzero"/><path fill="#d52842" d="M 1023.179688 450.269531 L 774.859375 450.269531 L 774.859375 466.933594 L 1023.179688 466.933594 L 1023.179688 450.269531 " fill-opacity="1" fill-rule="nonzero"/><path fill="#2e3247" d="M 948.804688 404.433594 L 849.222656 404.433594 C 838.984375 404.433594 830.679688 412.734375 830.679688 422.976562 C 830.679688 433.21875 838.984375 441.523438 849.222656 441.523438 L 948.804688 441.523438 C 959.042969 441.523438 967.339844 433.21875 967.339844 422.976562 C 967.339844 412.734375 959.042969 404.433594 948.804688 404.433594 " fill-opacity="1" fill-rule="nonzero"/><path fill="#ab1b2a" d="M 824.855469 492.769531 L 815.6875 492.769531 L 815.6875 481.519531 L 824.855469 481.519531 L 824.855469 492.769531 " fill-opacity="1" fill-rule="nonzero"/><path fill="#ab1b2a" d="M 875.679688 492.773438 L 866.519531 492.773438 L 866.519531 481.527344 L 875.679688 481.527344 L 875.679688 492.773438 " fill-opacity="1" fill-rule="nonzero"/><path fill="#ab1b2a" d="M 926.511719 492.773438 L 917.351562 492.773438 L 917.351562 481.523438 L 926.511719 481.523438 L 926.511719 492.773438 " fill-opacity="1" fill-rule="nonzero"/><path fill="#c7b4b8" d="M 859.152344 655.613281 C 856.648438 651.265625 856.648438 646.078125 859.152344 641.734375 L 862.550781 635.84375 L 869.601562 639.910156 C 871.835938 641.199219 874.699219 638.699219 874.046875 636.03125 L 869.355469 616.726562 C 868.613281 613.6875 865.726562 612.019531 862.714844 612.898438 L 843.664062 618.480469 C 841.023438 619.246094 840.289062 622.988281 842.527344 624.277344 L 849.566406 628.347656 L 846.167969 634.230469 C 840.949219 643.273438 840.949219 654.066406 846.167969 663.109375 C 851.386719 672.152344 860.730469 677.546875 871.175781 677.546875 L 892.144531 677.546875 L 892.144531 662.542969 L 871.175781 662.542969 C 866.152344 662.542969 861.671875 659.953125 859.152344 655.613281 " fill-opacity="1" fill-rule="nonzero"/><path fill="#c7b4b8" d="M 913.945312 588.445312 L 917.351562 594.335938 L 910.300781 598.402344 C 908.066406 599.695312 908.804688 603.429688 911.4375 604.199219 L 930.496094 609.78125 C 933.503906 610.660156 936.386719 608.996094 937.132812 605.945312 L 941.828125 586.652344 C 942.480469 583.984375 939.605469 581.484375 937.371094 582.769531 L 930.328125 586.835938 L 926.933594 580.949219 C 921.71875 571.90625 912.363281 566.503906 901.929688 566.503906 C 891.496094 566.503906 882.140625 571.90625 876.925781 580.949219 L 866.441406 599.113281 L 879.421875 606.617188 L 889.90625 588.445312 C 892.421875 584.105469 896.917969 581.507812 901.929688 581.507812 C 906.945312 581.507812 911.4375 584.105469 913.945312 588.445312 " fill-opacity="1" fill-rule="nonzero"/><path fill="#c7b4b8" d="M 957.691406 634.230469 L 947.210938 616.066406 L 934.226562 623.570312 L 944.710938 641.734375 C 947.21875 646.078125 947.21875 651.265625 944.710938 655.609375 C 942.199219 659.953125 937.714844 662.542969 932.695312 662.542969 L 925.890625 662.542969 L 925.890625 654.414062 C 925.890625 651.839844 922.292969 650.605469 920.304688 652.5 L 905.945312 666.214844 C 903.683594 668.382812 903.683594 671.714844 905.945312 673.882812 L 920.304688 687.597656 C 922.292969 689.492188 925.890625 688.261719 925.890625 685.683594 L 925.890625 677.546875 L 932.695312 677.546875 C 943.132812 677.546875 952.484375 672.152344 957.699219 663.109375 C 962.917969 654.074219 962.917969 643.273438 957.691406 634.230469 " fill-opacity="1" fill-rule="nonzero"/><path fill="#2e3247" d="M 845.152344 810.035156 L 822.082031 810.035156 L 822.082031 786.964844 L 845.152344 786.964844 L 845.152344 810.035156 " fill-opacity="1" fill-rule="nonzero"/><path fill="#2e3247" d="M 952.871094 810.035156 L 975.941406 810.035156 L 975.941406 786.964844 L 952.871094 786.964844 L 952.871094 810.035156 " fill-opacity="1" fill-rule="nonzero"/><path fill="#ab1b2a" d="M 939.585938 481.519531 L 926.511719 481.519531 L 926.511719 466.933594 L 939.585938 466.933594 L 939.585938 481.519531 M 917.355469 481.519531 L 875.6875 481.519531 L 875.6875 466.933594 L 917.355469 466.933594 L 917.355469 481.519531 M 866.523438 481.519531 L 824.855469 481.519531 L 824.855469 466.933594 L 866.523438 466.933594 L 866.523438 481.519531 M 815.691406 481.519531 L 786.53125 481.519531 L 786.53125 466.933594 L 815.691406 466.933594 L 815.691406 481.519531 " fill-opacity="1" fill-rule="nonzero"/><path fill="#8e1822" d="M 824.855469 481.519531 L 815.6875 481.519531 L 815.6875 466.933594 L 824.855469 466.933594 L 824.855469 481.519531 " fill-opacity="1" fill-rule="nonzero"/><path fill="#8e1822" d="M 875.679688 481.527344 L 866.519531 481.527344 L 866.519531 466.9375 L 875.679688 466.9375 L 875.679688 481.527344 " fill-opacity="1" fill-rule="nonzero"/><path fill="#8e1822" d="M 926.511719 481.523438 L 917.351562 481.523438 L 917.351562 466.9375 L 926.511719 466.9375 L 926.511719 481.523438 " fill-opacity="1" fill-rule="nonzero"/><path fill="#a5a7a6" d="M 1011.515625 450.269531 L 939.578125 450.269531 L 1011.515625 450.269531 L 1011.515625 438.183594 L 1011.515625 450.269531 " fill-opacity="1" fill-rule="nonzero"/><path fill="#ab1b2a" d="M 1011.515625 450.269531 L 939.578125 450.269531 L 939.578125 441.519531 L 948.8125 441.519531 C 959.046875 441.519531 967.34375 433.214844 967.34375 422.972656 C 967.34375 412.734375 959.046875 404.429688 948.8125 404.429688 L 939.578125 404.429688 L 939.578125 376.304688 L 949.640625 376.304688 C 983.808594 376.304688 1011.515625 404.011719 1011.515625 438.183594 L 1011.515625 450.269531 " fill-opacity="1" fill-rule="nonzero"/><path fill="#ab1b2a" d="M 972.761719 786.964844 L 939.578125 786.964844 L 939.578125 676.742188 C 947.15625 674.917969 953.664062 670.105469 957.703125 663.109375 C 962.914062 654.074219 962.914062 643.273438 957.695312 634.230469 L 947.210938 616.066406 L 939.578125 620.472656 L 939.578125 595.898438 L 941.828125 586.652344 C 942.273438 584.835938 941.085938 583.101562 939.578125 582.578125 L 939.578125 481.519531 L 973.183594 481.519531 L 973.183594 492.769531 L 982.34375 492.769531 L 982.34375 481.519531 L 1011.515625 481.519531 L 1011.515625 748.210938 C 1011.515625 748.523438 1011.507812 748.835938 1011.5 749.148438 C 1010.996094 770.121094 993.851562 786.964844 972.761719 786.964844 " fill-opacity="1" fill-rule="nonzero"/><path fill="#c62033" d="M 1023.179688 466.933594 L 939.585938 466.933594 L 939.585938 450.269531 L 1023.179688 450.269531 L 1023.179688 466.933594 " fill-opacity="1" fill-rule="nonzero"/><path fill="#1f222f" d="M 948.804688 441.523438 L 939.582031 441.523438 L 939.582031 404.433594 L 948.804688 404.433594 C 959.042969 404.433594 967.339844 412.734375 967.339844 422.976562 C 967.339844 433.21875 959.042969 441.523438 948.804688 441.523438 " fill-opacity="1" fill-rule="nonzero"/><path fill="#8e1822" d="M 982.339844 492.773438 L 973.179688 492.773438 L 973.179688 481.523438 L 982.339844 481.523438 L 982.339844 492.773438 " fill-opacity="1" fill-rule="nonzero"/><path fill="#b79fa6" d="M 939.578125 595.902344 L 939.578125 582.578125 C 941.082031 583.101562 942.273438 584.835938 941.828125 586.652344 L 939.578125 595.902344 " fill-opacity="1" fill-rule="nonzero"/><path fill="#ab1b2a" d="M 939.578125 660.742188 L 939.578125 632.851562 L 944.707031 641.738281 C 947.210938 646.082031 947.210938 651.269531 944.707031 655.617188 C 943.4375 657.804688 941.660156 659.550781 939.578125 660.742188 " fill-opacity="1" fill-rule="nonzero"/><path fill="#b79fa6" d="M 939.585938 676.742188 L 939.585938 660.742188 C 941.671875 659.546875 943.445312 657.800781 944.710938 655.609375 C 947.21875 651.265625 947.21875 646.078125 944.710938 641.734375 L 939.585938 632.847656 L 939.585938 620.472656 L 947.210938 616.066406 L 957.691406 634.230469 C 962.917969 643.273438 962.917969 654.074219 957.699219 663.109375 C 953.660156 670.105469 947.160156 674.917969 939.585938 676.742188 " fill-opacity="1" fill-rule="nonzero"/><path fill="#8e1822" d="M 1011.515625 481.519531 L 982.34375 481.519531 L 982.34375 466.933594 L 1011.515625 466.933594 L 1011.515625 481.519531 M 973.183594 481.519531 L 939.578125 481.519531 L 939.578125 466.933594 L 973.183594 466.933594 L 973.183594 481.519531 " fill-opacity="1" fill-rule="nonzero"/><path fill="#69121a" d="M 982.339844 481.523438 L 973.179688 481.523438 L 973.179688 466.9375 L 982.339844 466.9375 L 982.339844 481.523438 " fill-opacity="1" fill-rule="nonzero"/><path fill="#496fbf" d="M 1321.367188 376.304688 L 1220.132812 376.304688 C 1185.957031 376.304688 1158.25 404.007812 1158.25 438.183594 L 1158.25 450.269531 L 1383.242188 450.269531 L 1383.242188 438.183594 C 1383.242188 404.007812 1355.542969 376.304688 1321.367188 376.304688 " fill-opacity="1" fill-rule="nonzero"/><path fill="#496fbf" d="M 1158.25 466.933594 L 1158.25 748.207031 C 1158.25 769.613281 1175.597656 786.964844 1197 786.964844 L 1344.5 786.964844 C 1365.898438 786.964844 1383.242188 769.613281 1383.242188 748.207031 L 1383.242188 466.933594 L 1158.25 466.933594 " fill-opacity="1" fill-rule="nonzero"/><path fill="#5e8fd2" d="M 1394.90625 450.269531 L 1146.589844 450.269531 L 1146.589844 466.933594 L 1394.90625 466.933594 L 1394.90625 450.269531 " fill-opacity="1" fill-rule="nonzero"/><path fill="#2e3247" d="M 1320.53125 404.429688 L 1220.957031 404.429688 C 1210.722656 404.429688 1202.417969 412.734375 1202.417969 422.972656 C 1202.417969 433.214844 1210.722656 441.519531 1220.957031 441.519531 L 1320.53125 441.519531 C 1330.777344 441.519531 1339.078125 433.214844 1339.078125 422.972656 C 1339.078125 412.734375 1330.777344 404.429688 1320.53125 404.429688 " fill-opacity="1" fill-rule="nonzero"/><path fill="#3b58b0" d="M 1196.585938 492.773438 L 1187.414062 492.773438 L 1187.414062 481.523438 L 1196.585938 481.523438 L 1196.585938 492.773438 " fill-opacity="1" fill-rule="nonzero"/><path fill="#3b58b0" d="M 1247.417969 492.769531 L 1238.25 492.769531 L 1238.25 481.519531 L 1247.417969 481.519531 L 1247.417969 492.769531 " fill-opacity="1" fill-rule="nonzero"/><path fill="#3b58b0" d="M 1298.238281 492.773438 L 1289.070312 492.773438 L 1289.070312 481.523438 L 1298.238281 481.523438 L 1298.238281 492.773438 " fill-opacity="1" fill-rule="nonzero"/><path fill="#c7b4b8" d="M 1230.886719 655.613281 C 1228.378906 651.269531 1228.378906 646.082031 1230.886719 641.738281 L 1234.285156 635.84375 L 1241.328125 639.910156 C 1243.558594 641.199219 1246.429688 638.699219 1245.773438 636.03125 L 1241.085938 616.730469 C 1240.335938 613.6875 1237.445312 612.019531 1234.445312 612.898438 L 1215.386719 618.480469 C 1212.746094 619.25 1212.015625 622.988281 1214.246094 624.277344 L 1221.289062 628.347656 L 1217.894531 634.230469 C 1212.667969 643.273438 1212.667969 654.070312 1217.894531 663.113281 C 1223.109375 672.152344 1232.464844 677.546875 1242.894531 677.546875 L 1263.871094 677.546875 L 1263.871094 662.546875 L 1242.894531 662.546875 C 1237.886719 662.546875 1233.386719 659.953125 1230.886719 655.613281 " fill-opacity="1" fill-rule="nonzero"/><path fill="#c7b4b8" d="M 1285.675781 588.445312 L 1289.078125 594.332031 L 1282.03125 598.402344 C 1279.796875 599.691406 1280.53125 603.429688 1283.171875 604.199219 L 1302.222656 609.777344 C 1305.230469 610.660156 1308.125 608.996094 1308.867188 605.945312 L 1313.5625 586.652344 C 1314.207031 583.984375 1311.339844 581.484375 1309.105469 582.765625 L 1302.0625 586.835938 L 1298.667969 580.945312 C 1293.445312 571.90625 1284.09375 566.503906 1273.65625 566.503906 C 1263.222656 566.503906 1253.875 571.90625 1248.648438 580.945312 L 1238.167969 599.113281 L 1251.152344 606.613281 L 1261.644531 588.445312 C 1264.152344 584.105469 1268.644531 581.507812 1273.65625 581.507812 C 1278.675781 581.507812 1283.171875 584.105469 1285.675781 588.445312 " fill-opacity="1" fill-rule="nonzero"/><path fill="#c7b4b8" d="M 1329.417969 634.230469 L 1318.933594 616.066406 L 1305.949219 623.570312 L 1316.433594 641.738281 C 1318.941406 646.082031 1318.941406 651.269531 1316.433594 655.613281 C 1313.925781 659.953125 1309.445312 662.546875 1304.417969 662.546875 L 1297.625 662.546875 L 1297.625 654.414062 C 1297.625 651.839844 1294.011719 650.605469 1292.027344 652.5 L 1277.675781 666.214844 C 1275.402344 668.382812 1275.402344 671.714844 1277.675781 673.882812 L 1292.027344 687.597656 C 1294.011719 689.492188 1297.625 688.261719 1297.625 685.683594 L 1297.625 677.546875 L 1304.417969 677.546875 C 1314.855469 677.546875 1324.210938 672.152344 1329.417969 663.109375 C 1334.644531 654.074219 1334.644531 643.273438 1329.417969 634.230469 " fill-opacity="1" fill-rule="nonzero"/><path fill="#2e3247" d="M 1216.878906 810.035156 L 1193.808594 810.035156 L 1193.808594 786.964844 L 1216.878906 786.964844 L 1216.878906 810.035156 " fill-opacity="1" fill-rule="nonzero"/><path fill="#2e3247" d="M 1324.605469 810.035156 L 1347.683594 810.035156 L 1347.683594 786.964844 L 1324.605469 786.964844 L 1324.605469 810.035156 " fill-opacity="1" fill-rule="nonzero"/><path fill="#3b58b0" d="M 1383.242188 481.519531 L 1383.242188 466.933594 L 1383.242188 481.519531 M 1311.3125 481.519531 L 1298.246094 481.519531 L 1298.246094 466.933594 L 1311.3125 466.933594 L 1311.3125 481.519531 M 1289.078125 481.519531 L 1247.417969 481.519531 L 1247.417969 466.933594 L 1289.078125 466.933594 L 1289.078125 481.519531 M 1238.25 481.519531 L 1196.589844 481.519531 L 1196.589844 466.933594 L 1238.25 466.933594 L 1238.25 481.519531 M 1187.421875 481.519531 L 1158.25 481.519531 L 1158.25 466.933594 L 1187.421875 466.933594 L 1187.421875 481.519531 " fill-opacity="1" fill-rule="nonzero"/><path fill="#344faa" d="M 1196.585938 481.523438 L 1187.414062 481.523438 L 1187.414062 466.933594 L 1196.585938 466.933594 L 1196.585938 481.523438 " fill-opacity="1" fill-rule="nonzero"/><path fill="#344faa" d="M 1247.417969 481.519531 L 1238.25 481.519531 L 1238.25 466.933594 L 1247.417969 466.933594 L 1247.417969 481.519531 " fill-opacity="1" fill-rule="nonzero"/><path fill="#344faa" d="M 1298.238281 481.523438 L 1289.070312 481.523438 L 1289.070312 466.9375 L 1298.238281 466.9375 L 1298.238281 481.523438 " fill-opacity="1" fill-rule="nonzero"/><path fill="#3b58b0" d="M 1344.5 786.964844 L 1311.3125 786.964844 L 1311.3125 676.742188 C 1318.878906 674.917969 1325.390625 670.105469 1329.429688 663.109375 C 1334.648438 654.074219 1334.648438 643.273438 1329.429688 634.230469 L 1318.945312 616.066406 L 1311.3125 620.472656 L 1311.3125 595.898438 L 1313.566406 586.652344 C 1314.007812 584.835938 1312.816406 583.101562 1311.3125 582.574219 L 1311.3125 481.519531 L 1344.910156 481.519531 L 1344.910156 492.769531 L 1354.078125 492.769531 L 1354.078125 481.519531 L 1383.242188 481.519531 L 1383.242188 748.207031 C 1383.242188 769.613281 1365.898438 786.964844 1344.5 786.964844 " fill-opacity="1" fill-rule="nonzero"/><path fill="#344faa" d="M 1354.078125 492.769531 L 1344.910156 492.769531 L 1344.910156 481.519531 L 1354.078125 481.519531 L 1354.078125 492.769531 " fill-opacity="1" fill-rule="nonzero"/><path fill="#3b58b0" d="M 1311.308594 660.742188 L 1311.308594 632.847656 L 1316.429688 641.738281 C 1318.941406 646.082031 1318.941406 651.269531 1316.429688 655.613281 C 1315.167969 657.804688 1313.394531 659.550781 1311.308594 660.742188 " fill-opacity="1" fill-rule="nonzero"/><path fill="#b79fa6" d="M 1311.3125 595.898438 L 1311.3125 582.578125 C 1312.820312 583.101562 1314 584.835938 1313.5625 586.652344 L 1311.3125 595.898438 " fill-opacity="1" fill-rule="nonzero"/><path fill="#b79fa6" d="M 1311.308594 676.742188 L 1311.308594 660.742188 C 1313.402344 659.546875 1315.164062 657.800781 1316.433594 655.613281 C 1318.941406 651.269531 1318.941406 646.082031 1316.433594 641.738281 L 1311.308594 632.847656 L 1311.308594 620.472656 L 1318.933594 616.066406 L 1329.417969 634.230469 C 1334.644531 643.273438 1334.644531 654.074219 1329.417969 663.109375 C 1325.390625 670.105469 1318.878906 674.917969 1311.308594 676.742188 " fill-opacity="1" fill-rule="nonzero"/><path fill="#3b58b0" d="M 1383.242188 450.269531 L 1311.3125 450.269531 L 1311.3125 441.519531 L 1320.535156 441.519531 C 1330.777344 441.519531 1339.082031 433.214844 1339.082031 422.972656 C 1339.082031 412.730469 1330.777344 404.429688 1320.535156 404.429688 L 1311.3125 404.429688 L 1311.3125 376.304688 L 1321.367188 376.304688 C 1355.542969 376.304688 1383.242188 404.007812 1383.242188 438.183594 L 1383.242188 450.269531 " fill-opacity="1" fill-rule="nonzero"/><path fill="#496fbf" d="M 1394.90625 466.933594 L 1311.304688 466.933594 L 1311.304688 450.269531 L 1394.90625 450.269531 L 1394.90625 466.933594 " fill-opacity="1" fill-rule="nonzero"/><path fill="#1f222f" d="M 1320.53125 441.519531 L 1311.3125 441.519531 L 1311.3125 404.429688 L 1320.53125 404.429688 C 1330.777344 404.429688 1339.078125 412.734375 1339.078125 422.972656 C 1339.078125 433.214844 1330.777344 441.519531 1320.53125 441.519531 " fill-opacity="1" fill-rule="nonzero"/><path fill="#344faa" d="M 1383.242188 481.519531 L 1354.078125 481.519531 L 1354.078125 466.933594 L 1383.242188 466.933594 L 1383.242188 481.519531 M 1344.910156 481.519531 L 1311.3125 481.519531 L 1311.3125 466.933594 L 1344.910156 466.933594 L 1344.910156 481.519531 " fill-opacity="1" fill-rule="nonzero"/><path fill="#2f49a5" d="M 1354.078125 481.519531 L 1344.910156 481.519531 L 1344.910156 466.933594 L 1354.078125 466.933594 L 1354.078125 481.519531 " fill-opacity="1" fill-rule="nonzero"/><path fill="#c7b4b8" d="M 436.644531 183.65625 L 424.164062 96.625 L 414.449219 98.019531 L 406.429688 99.171875 L 396.71875 100.558594 L 409.199219 187.59375 C 398.722656 189.097656 391.449219 198.808594 392.949219 209.292969 L 410.523438 331.796875 C 411.339844 337.492188 416.617188 341.445312 422.3125 340.632812 L 434.269531 338.914062 L 440.683594 337.992188 L 448.703125 336.839844 L 455.117188 335.925781 L 467.078125 334.207031 C 472.773438 333.386719 476.726562 328.109375 475.90625 322.414062 L 458.339844 199.910156 C 456.835938 189.433594 447.125 182.152344 436.644531 183.65625 " fill-opacity="1" fill-rule="nonzero"/><path fill="#e68f3f" d="M 450.519531 295.640625 L 406.246094 301.996094 L 395.804688 229.191406 L 440.078125 222.839844 L 450.519531 295.640625 " fill-opacity="1" fill-rule="nonzero"/><path fill="#a5a7a6" d="M 403.769531 284.738281 L 397.832031 243.335938 L 403.769531 284.738281 " fill-opacity="1" fill-rule="nonzero"/><path fill="#b79fa6" d="M 403.769531 284.738281 L 397.832031 243.335938 L 403.769531 284.738281 " fill-opacity="1" fill-rule="nonzero"/><path fill="#e17130" d="M 407.574219 284.988281 C 406.285156 284.988281 405.015625 284.902344 403.769531 284.738281 L 397.832031 243.335938 C 400.164062 242.296875 402.699219 241.542969 405.394531 241.15625 C 406.789062 240.953125 408.164062 240.855469 409.523438 240.855469 C 421.617188 240.855469 431.945312 248.53125 433.496094 259.34375 C 435.222656 271.367188 425.4375 282.71875 411.640625 284.699219 C 410.265625 284.898438 408.910156 284.988281 407.574219 284.988281 " fill-opacity="1" fill-rule="nonzero"/><path fill="#2e3247" d="M 431.558594 148.1875 L 424.164062 96.625 L 396.71875 100.558594 L 404.109375 152.125 L 431.558594 148.1875 " fill-opacity="1" fill-rule="nonzero"/><path fill="#a5a7a6" d="M 403.402344 147.171875 L 402.691406 142.21875 L 403.402344 147.171875 " fill-opacity="1" fill-rule="nonzero"/><path fill="#b79fa6" d="M 403.402344 147.171875 L 402.691406 142.21875 L 403.402344 147.171875 " fill-opacity="1" fill-rule="nonzero"/><path fill="#a5a7a6" d="M 430.394531 140.054688 L 430.136719 138.285156 L 430.394531 140.054688 " fill-opacity="1" fill-rule="nonzero"/><path fill="#b79fa6" d="M 430.636719 141.761719 L 430.136719 138.285156 L 430.394531 140.054688 L 430.636719 141.761719 " fill-opacity="1" fill-rule="nonzero"/><path fill="#1f222f" d="M 403.402344 147.171875 L 402.691406 142.21875 L 420.984375 139.601562 L 421.691406 144.550781 L 403.402344 147.171875 M 430.847656 143.234375 L 430.136719 138.285156 L 430.636719 141.761719 L 430.847656 143.234375 " fill-opacity="1" fill-rule="nonzero"/><path fill="#a5a7a6" d="M 436.644531 183.65625 C 437.566406 183.523438 438.488281 183.460938 439.394531 183.460938 C 438.488281 183.460938 437.574219 183.523438 436.644531 183.65625 " fill-opacity="1" fill-rule="nonzero"/><path fill="#b79fa6" d="M 449.265625 336.761719 L 443.511719 296.648438 L 450.519531 295.640625 L 440.078125 222.839844 L 433.070312 223.847656 L 422.402344 149.5 L 431.558594 148.1875 L 436.644531 183.65625 C 437.574219 183.523438 438.488281 183.460938 439.394531 183.460938 C 448.773438 183.460938 456.96875 190.355469 458.339844 199.910156 L 475.90625 322.414062 C 476.699219 327.890625 473.074219 332.972656 467.738281 334.09375 C 467.523438 334.136719 467.300781 334.171875 467.078125 334.207031 L 449.265625 336.761719 " fill-opacity="1" fill-rule="nonzero"/><path fill="#e17130" d="M 443.511719 296.648438 L 433.070312 223.847656 L 440.078125 222.839844 L 450.519531 295.640625 L 443.511719 296.648438 " fill-opacity="1" fill-rule="nonzero"/><path fill="#a5a7a6" d="M 415.007812 97.9375 L 424.164062 96.625 L 415.007812 97.9375 " fill-opacity="1" fill-rule="nonzero"/><path fill="#1f222f" d="M 422.402344 149.5 L 421.691406 144.550781 L 430.847656 143.234375 L 431.558594 148.1875 L 422.402344 149.5 M 420.984375 139.601562 L 415.007812 97.9375 L 424.164062 96.625 L 430.136719 138.285156 L 420.984375 139.601562 " fill-opacity="1" fill-rule="nonzero"/><path fill="#161820" d="M 421.691406 144.550781 L 420.984375 139.601562 L 430.136719 138.285156 L 430.847656 143.234375 L 421.691406 144.550781 " fill-opacity="1" fill-rule="nonzero"/><path fill="#1a1c26" d="M 1435.789062 123.285156 L 1432.492188 124.707031 L 1436.402344 134.339844 L 1439.652344 133.207031 C 1442.578125 132.1875 1444.027344 128.882812 1442.773438 126.035156 C 1441.597656 123.351562 1438.484375 122.125 1435.789062 123.285156 " fill-opacity="1" fill-rule="nonzero"/><path fill="#e8a81b" d="M 1341.675781 185.65625 L 1286.796875 293.03125 C 1282.019531 302.375 1285.710938 313.824219 1295.066406 318.597656 L 1341.355469 342.269531 C 1350.699219 347.046875 1362.148438 343.34375 1366.917969 334 L 1418.316406 233.449219 C 1425.566406 219.25 1425.113281 202.335938 1417.105469 188.550781 L 1402.554688 163.53125 C 1399.878906 158.925781 1402.058594 153.019531 1407.089844 151.269531 L 1429.027344 143.632812 C 1435.542969 141.367188 1438.734375 134.03125 1435.960938 127.722656 C 1433.351562 121.777344 1426.429688 119.054688 1420.46875 121.625 L 1378.660156 139.667969 C 1373.230469 142.011719 1370.242188 147.890625 1371.554688 153.65625 L 1372.910156 159.609375 C 1374.296875 165.699219 1370.882812 171.855469 1364.988281 173.917969 L 1348.546875 179.65625 C 1345.574219 180.695312 1343.109375 182.84375 1341.675781 185.65625 " fill-opacity="1" fill-rule="nonzero"/><path fill="#2e3247" d="M 1420.46875 121.625 L 1413.15625 124.78125 L 1421.835938 146.136719 L 1429.027344 143.632812 C 1435.542969 141.367188 1438.734375 134.03125 1435.960938 127.722656 C 1433.351562 121.777344 1426.429688 119.054688 1420.46875 121.625 " fill-opacity="1" fill-rule="nonzero"/><path fill="#e58e1a" d="M 1381.925781 228.417969 L 1332.683594 203.242188 L 1333.1875 202.25 L 1338.1875 192.476562 L 1387.429688 217.65625 L 1381.925781 228.417969 " fill-opacity="1" fill-rule="nonzero"/><path fill="#bf2136" d="M 1293.503906 279.898438 L 1373.636719 320.863281 L 1409.972656 249.773438 L 1329.84375 208.804688 L 1293.503906 279.898438 " fill-opacity="1" fill-rule="nonzero"/><path fill="#a5a7a6" d="M 1366.921875 334 L 1371.132812 325.761719 L 1366.921875 334 M 1286.792969 293.03125 L 1290.996094 284.792969 L 1286.792969 293.03125 " fill-opacity="1" fill-rule="nonzero"/><path fill="#e58e1a" d="M 1336.035156 318.207031 L 1286.792969 293.03125 L 1290.992188 284.796875 L 1340.242188 309.972656 L 1336.035156 318.207031 " fill-opacity="1" fill-rule="nonzero"/><path fill="#a5a7a6" d="M 1376.25 315.746094 L 1380.460938 307.511719 L 1376.25 315.746094 M 1297.113281 272.832031 L 1300.335938 266.539062 L 1297.113281 272.832031 " fill-opacity="1" fill-rule="nonzero"/><path fill="#ab1b2a" d="M 1345.363281 299.953125 L 1296.125 274.773438 L 1297.121094 272.828125 L 1300.328125 266.539062 L 1349.578125 291.714844 L 1345.363281 299.953125 " fill-opacity="1" fill-rule="nonzero"/><path fill="#e8a81b" d="M 1365.546875 237.828125 C 1356.441406 233.171875 1344.589844 238.175781 1339.054688 248.996094 C 1333.527344 259.8125 1336.425781 272.355469 1345.511719 277.007812 C 1354.617188 281.65625 1366.46875 276.65625 1371.996094 265.835938 C 1377.53125 255.019531 1374.640625 242.476562 1365.546875 237.828125 " fill-opacity="1" fill-rule="nonzero"/><path fill="#a5a7a6" d="M 1349.992188 344.355469 C 1356.902344 344.355469 1363.566406 340.574219 1366.925781 333.996094 C 1363.566406 340.574219 1356.902344 344.355469 1349.992188 344.355469 M 1341.359375 342.269531 L 1327.394531 335.125 L 1341.359375 342.269531 " fill-opacity="1" fill-rule="nonzero"/><path fill="#e58e1a" d="M 1349.992188 344.355469 C 1347.085938 344.351562 1344.132812 343.683594 1341.359375 342.269531 L 1327.394531 335.125 L 1336.039062 318.207031 L 1366.925781 333.996094 C 1363.566406 340.574219 1356.902344 344.355469 1349.992188 344.355469 " fill-opacity="1" fill-rule="nonzero"/><path fill="#e58e1a" d="M 1371.132812 325.761719 L 1340.246094 309.96875 L 1342.753906 305.070312 L 1373.636719 320.863281 L 1376.253906 315.746094 L 1371.132812 325.761719 " fill-opacity="1" fill-rule="nonzero"/><path fill="#e58e1a" d="M 1380.472656 307.503906 L 1387.441406 293.867188 L 1380.472656 307.503906 " fill-opacity="1" fill-rule="nonzero"/><path fill="#a5a7a6" d="M 1422.925781 219.125 C 1424.503906 208.710938 1422.542969 197.90625 1417.105469 188.550781 L 1409.3125 175.160156 L 1417.105469 188.550781 C 1422.542969 197.90625 1424.503906 208.710938 1422.925781 219.125 " fill-opacity="1" fill-rule="nonzero"/><path fill="#e58e1a" d="M 1409.976562 249.769531 L 1379.089844 233.980469 L 1381.933594 228.417969 L 1412.820312 244.207031 L 1418.316406 233.445312 L 1409.976562 249.769531 M 1418.316406 233.445312 L 1387.429688 217.65625 L 1409.226562 175.007812 L 1409.3125 175.160156 L 1417.105469 188.550781 C 1422.542969 197.90625 1424.503906 208.710938 1422.925781 219.125 C 1422.1875 224.046875 1420.648438 228.886719 1418.316406 233.445312 " fill-opacity="1" fill-rule="nonzero"/><path fill="#e36f19" d="M 1412.820312 244.207031 L 1381.929688 228.417969 L 1387.433594 217.652344 L 1418.320312 233.445312 L 1412.820312 244.207031 " fill-opacity="1" fill-rule="nonzero"/><path fill="#ab1b2a" d="M 1373.636719 320.863281 L 1342.75 305.074219 L 1345.367188 299.953125 L 1376.25 315.746094 L 1373.636719 320.863281 M 1380.46875 307.507812 L 1349.574219 291.71875 L 1356.398438 278.378906 C 1362.59375 277.109375 1368.53125 272.613281 1371.996094 265.835938 C 1375.472656 259.058594 1375.621094 251.605469 1373.023438 245.839844 L 1379.085938 233.980469 L 1409.972656 249.773438 L 1387.433594 293.867188 L 1380.46875 307.507812 " fill-opacity="1" fill-rule="nonzero"/><path fill="#e36f19" d="M 1366.921875 334 L 1336.039062 318.207031 L 1340.242188 309.96875 L 1371.132812 325.761719 L 1366.921875 334 " fill-opacity="1" fill-rule="nonzero"/><path fill="#e36f19" d="M 1376.25 315.746094 L 1380.460938 307.511719 L 1376.25 315.746094 " fill-opacity="1" fill-rule="nonzero"/><path fill="#8e1822" d="M 1376.25 315.746094 L 1345.363281 299.953125 L 1349.574219 291.71875 L 1380.460938 307.511719 L 1376.25 315.746094 " fill-opacity="1" fill-rule="nonzero"/><path fill="#e58e1a" d="M 1356.394531 278.378906 L 1373.027344 245.839844 C 1375.625 251.605469 1375.464844 259.058594 1372.003906 265.835938 C 1368.53125 272.613281 1362.59375 277.109375 1356.394531 278.378906 " fill-opacity="1" fill-rule="nonzero"/><path fill="#91a321" d="M 1199.894531 143.109375 L 1220.640625 30.554688 C 1221.386719 26.5 1223.980469 23.027344 1227.644531 21.160156 L 1267.527344 0.875 C 1269.21875 0.015625 1271.277344 0.597656 1272.273438 2.210938 C 1273.394531 4.035156 1272.71875 6.421875 1270.800781 7.378906 L 1231.117188 27.175781 C 1229.242188 28.117188 1227.90625 29.871094 1227.5 31.925781 L 1205.347656 144.148438 C 1205.066406 145.59375 1203.707031 146.566406 1202.246094 146.363281 C 1200.683594 146.152344 1199.609375 144.667969 1199.894531 143.109375 " fill-opacity="1" fill-rule="nonzero"/><path fill="#87d4eb" d="M 1253.210938 70.910156 C 1255.136719 51.960938 1241.726562 34.757812 1222.71875 32.152344 C 1203.703125 29.546875 1186.15625 42.519531 1182.9375 61.285156 L 1253.210938 70.910156 " fill-opacity="1" fill-rule="nonzero"/><path fill="#6ebde3" d="M 1187.070312 85.703125 L 1199.054688 153.207031 L 1228.851562 148.238281 L 1227.933594 137.019531 L 1215.765625 128.554688 L 1228.0625 126.15625 L 1229.867188 120.957031 L 1215.722656 109.355469 L 1234.515625 106.894531 L 1240.746094 91.148438 L 1187.070312 85.703125 " fill-opacity="1" fill-rule="nonzero"/><path fill="#58a6dc" d="M 1217.664062 103.640625 L 1213.460938 103.058594 L 1214.851562 96.035156 L 1223.164062 97.171875 L 1217.664062 103.640625 M 1207.433594 102.238281 L 1189.578125 99.792969 L 1188.261719 92.394531 L 1208.730469 95.199219 L 1207.433594 102.238281 " fill-opacity="1" fill-rule="nonzero"/><path fill="#6ebde3" d="M 1176.875 57.636719 L 1175.953125 64.320312 L 1181.835938 65.117188 L 1182.03125 91.550781 L 1245.945312 100.296875 L 1253.226562 74.894531 L 1259.109375 75.695312 L 1260.019531 69.023438 L 1176.875 57.636719 " fill-opacity="1" fill-rule="nonzero"/><path fill="#58a6dc" d="M 1225.398438 80.878906 L 1218.042969 79.875 L 1219.921875 70.328125 L 1226.714844 71.261719 L 1225.398438 80.878906 M 1211.71875 79.007812 L 1181.910156 74.925781 L 1181.835938 65.113281 L 1213.46875 69.445312 L 1211.71875 79.007812 " fill-opacity="1" fill-rule="nonzero"/><path fill="#a5a7a6" d="M 1215.773438 128.546875 L 1228.066406 126.152344 L 1229.875 120.957031 L 1228.066406 126.152344 L 1215.773438 128.546875 M 1229.875 120.957031 L 1215.722656 109.355469 L 1229.875 120.957031 M 1234.519531 106.890625 L 1237.582031 99.148438 L 1234.519531 106.890625 " fill-opacity="1" fill-rule="nonzero"/><path fill="#58a6dc" d="M 1215.316406 150.492188 L 1211.101562 115.042969 L 1212.050781 110.234375 L 1217.660156 103.632812 L 1234.875 105.996094 L 1237.582031 99.148438 L 1234.519531 106.890625 L 1215.722656 109.355469 L 1229.875 120.957031 L 1228.066406 126.152344 L 1215.773438 128.546875 L 1227.9375 137.015625 L 1228.859375 148.234375 L 1215.316406 150.492188 " fill-opacity="1" fill-rule="nonzero"/><path fill="#4988cf" d="M 1234.875 105.996094 L 1217.660156 103.632812 L 1223.164062 97.171875 L 1237.582031 99.148438 L 1234.875 105.996094 " fill-opacity="1" fill-rule="nonzero"/><path fill="#6fc6e6" d="M 1253.347656 68.101562 L 1227.621094 64.585938 L 1231.722656 34.640625 C 1244.925781 40.222656 1253.6875 53.429688 1253.347656 68.101562 " fill-opacity="1" fill-rule="nonzero"/><path fill="#58a6dc" d="M 1245.945312 100.296875 L 1237.578125 99.152344 L 1223.164062 97.175781 L 1225.390625 80.878906 L 1250.519531 84.320312 L 1253.226562 74.894531 L 1245.945312 100.296875 M 1259.109375 75.695312 L 1253.226562 74.894531 L 1226.707031 71.265625 L 1227.613281 64.585938 L 1253.347656 68.109375 L 1260.019531 69.023438 L 1259.109375 75.695312 " fill-opacity="1" fill-rule="nonzero"/><path fill="#4988cf" d="M 1250.519531 84.328125 L 1225.390625 80.878906 L 1226.707031 71.261719 L 1253.230469 74.898438 L 1250.519531 84.328125 " fill-opacity="1" fill-rule="nonzero"/><path fill="#91a321" d="M 1227.273438 33.074219 C 1225.796875 32.675781 1224.28125 32.363281 1222.71875 32.144531 C 1221.945312 32.042969 1221.164062 31.964844 1220.390625 31.910156 L 1220.644531 30.550781 C 1221.390625 26.496094 1223.984375 23.027344 1227.652344 21.160156 L 1267.53125 0.871094 C 1268.058594 0.605469 1268.625 0.480469 1269.179688 0.480469 C 1270.410156 0.480469 1271.601562 1.097656 1272.285156 2.207031 C 1272.640625 2.808594 1272.820312 3.46875 1272.820312 4.117188 C 1272.8125 5.445312 1272.09375 6.730469 1270.808594 7.375 L 1231.125 27.175781 C 1229.242188 28.109375 1227.90625 29.863281 1227.5 31.929688 L 1227.273438 33.074219 " fill-opacity="1" fill-rule="nonzero"/><path fill="#88bd6f" d="M 1221.222656 63.710938 L 1214.699219 62.8125 L 1220.390625 31.90625 C 1221.164062 31.96875 1221.9375 32.042969 1222.710938 32.152344 C 1224.269531 32.363281 1225.792969 32.671875 1227.269531 33.074219 L 1221.222656 63.710938 " fill-opacity="1" fill-rule="nonzero"/><path fill="#78b16d" d="M 1202.621094 146.390625 C 1202.496094 146.390625 1202.375 146.378906 1202.246094 146.363281 C 1200.675781 146.148438 1199.605469 144.667969 1199.886719 143.113281 L 1207.425781 102.246094 L 1213.453125 103.070312 L 1212.039062 110.242188 L 1210.703125 111.804688 L 1211.089844 115.046875 L 1205.347656 144.152344 C 1205.082031 145.464844 1203.9375 146.390625 1202.621094 146.390625 " fill-opacity="1" fill-rule="nonzero"/><path fill="#6ba76b" d="M 1213.453125 103.066406 L 1207.429688 102.242188 L 1208.726562 95.203125 L 1214.84375 96.042969 L 1213.453125 103.066406 " fill-opacity="1" fill-rule="nonzero"/><path fill="#78b16d" d="M 1214.839844 96.042969 L 1208.722656 95.207031 L 1211.707031 79.011719 L 1218.035156 79.875 L 1214.839844 96.042969 M 1219.917969 70.335938 L 1213.460938 69.457031 L 1214.691406 62.816406 L 1221.21875 63.710938 L 1219.917969 70.335938 " fill-opacity="1" fill-rule="nonzero"/><path fill="#6ba76b" d="M 1218.035156 79.878906 L 1211.707031 79.007812 L 1213.46875 69.453125 L 1219.914062 70.339844 L 1218.035156 79.878906 " fill-opacity="1" fill-rule="nonzero"/><path fill="#6ba76b" d="M 1211.089844 115.046875 L 1210.707031 111.804688 L 1212.042969 110.242188 L 1211.089844 115.046875 " fill-opacity="1" fill-rule="nonzero"/></svg>