<svg width="17" height="16" viewBox="0 0 17 16" fill="none" xmlns="http://www.w3.org/2000/svg">
<path d="M7.79189 12.5C7.72209 12.5003 7.65293 12.4875 7.58846 12.4623C7.52399 12.4371 7.46552 12.4001 7.41647 12.3533L3.16647 8.35331C3.06699 8.25956 3.01111 8.13248 3.01111 7.99998C3.01111 7.86748 3.06699 7.7404 3.16647 7.64665L7.41647 3.64665C7.51718 3.55833 7.65038 3.51024 7.78801 3.51253C7.92564 3.51481 8.05695 3.56729 8.15429 3.6589C8.25162 3.75051 8.30738 3.8741 8.30981 4.00363C8.31223 4.13316 8.26115 4.25853 8.16731 4.35331L4.29272 7.99998L8.16731 11.6466C8.26679 11.7404 8.32267 11.8675 8.32267 12C8.32267 12.1325 8.26679 12.2596 8.16731 12.3533C8.11826 12.4001 8.05979 12.4371 7.99532 12.4623C7.93085 12.4875 7.86169 12.5003 7.79189 12.5Z" fill="#00704B"/>
<path d="M13.4584 8.5H3.54169C3.40079 8.5 3.26567 8.44732 3.16604 8.35355C3.06641 8.25978 3.01044 8.13261 3.01044 8C3.01044 7.86739 3.06641 7.74022 3.16604 7.64645C3.26567 7.55268 3.40079 7.5 3.54169 7.5H13.4584C13.5992 7.5 13.7344 7.55268 13.834 7.64645C13.9336 7.74022 13.9896 7.86739 13.9896 8C13.9896 8.13261 13.9336 8.25978 13.834 8.35355C13.7344 8.44732 13.5992 8.5 13.4584 8.5Z" fill="#00704B"/>
</svg>
